<svg id="eluKIzxBwM51" xmlns="http://www.w3.org/2000/svg" xmlns:xlink="http://www.w3.org/1999/xlink" viewBox="0 0 800 800" shape-rendering="geometricPrecision" text-rendering="geometricPrecision"><g transform="translate(-111.518555-117.402169)" clip-rule="evenodd"><path d="M412.5,299.5c2.796,3.297,5.796,6.464,9,9.5-2,1.667-4,3.333-6,5c.5.167,1,.333,1.5.5c59.22-26.513,119.053-27.846,179.5-4c2.865,2.386,6.198,3.553,10,3.5-1.622-1.295-2.955-2.795-4-4.5.18-1.054.513-2.054,1-3c17.427-18.91,36.427-36.244,57-52c5.297-2.657,10.297-5.657,15-9c2.915-1.311,5.415-.644,7.5,2c.519-1.016,1.353-1.682,2.5-2c1.834,1.254,3.834,1.921,6,2c0-1.333,0-2.667,0-4c1.333,0,2.667,0,4,0c1.333-2.667,2.667-5.333,4-8c3.825-.711,6.825.455,9,3.5-.667.333-1.333.667-2,1c3.949,2.273,7.616,1.94,11-1c2.333-.667,4.667-.667,7,0c1.103,1.68.77,3.18-1,4.5-3.286.542-6.286,1.542-9,3-7.975,5.317-15.642,10.983-23,17c.228-1.855-.439-2.688-2-2.5-21.759,16.428-42.259,34.261-61.5,53.5-1.368,1.493-1.535,2.993-.5,4.5c5.723,3.522,11.389,7.022,17,10.5c9.991,8.998,19.991,17.998,30,27c24.011,25.172,45.177,52.505,63.5,82c13.019,20.227,22.853,41.893,29.5,65c.167,10.672,0,21.339-.5,32-.546,2.879-1.379,5.546-2.5,8-5.562-8.774-11.396-17.44-17.5-26-21.007-23.254-47.174-35.254-78.5-36c.295-2.235-.039-4.235-1-6-.242-3.979-1.242-7.646-3-11-6.31-15.971-17.976-25.305-35-28-9.71-2.415-18.71-.748-27,5-3.391,1.029-6.057,3.029-8,6-3.811,1.936-6.478,4.936-8,9-3.899,4.147-5.899,9.147-6,15-.934,1.068-1.268,2.401-1,4-1.579,7.403-1.079,14.736,1.5,22c.708.881,1.542,1.547,2.5,2c3.636,4.642,7.303,9.309,11,14-.02,1.643.647,2.976,2,4c3.719,2.431,7.719,4.264,12,5.5-2.982.498-5.982.665-9,.5-3.411-.86-6.744-2.026-10-3.5-43.347-38.26-90.014-42.927-140-14-7.081,5.29-14.247,10.457-21.5,15.5-3.309,1.715-6.809,2.715-10.5,3-2.027.162-4.027-.005-6-.5c3.485-1.755,6.819-3.588,10-5.5c6.022-3.69,10.688-8.69,14-15c8.359-11.544,10.193-24.21,5.5-38-.872-3.681-2.706-6.681-5.5-9-1.533-4.204-4.2-7.537-8-10-2.025-1.696-4.025-3.363-6-5-3.897-3.444-8.563-5.61-14-6.5-5.333-.667-10.667-.667-16,0-.556.383-.889.883-1,1.5-3.742.471-7.075,1.804-10,4-9,4.333-15.667,11-20,20-2.5,3.16-3.833,6.827-4,11-.977,2.787-1.31,5.787-1,9-45.88,2.571-78.547,24.571-98,66c.237-1.291-.096-2.291-1-3-3.19-17.482-2.357-34.816,2.5-52c8.659-23.008,19.825-44.675,33.5-65c28.058-42.73,62.724-79.396,104-110-19.986-19.824-41.319-37.991-64-54.5-.937-.692-1.603-.525-2,.5-6.433-4.586-12.766-9.42-19-14.5-9.013-4.672-15.18-2.172-18.5,7.5-1.549,6.877-3.383,13.544-5.5,20-2.055,7.951-4.222,15.951-6.5,24-.845-16.492-1.678-32.825-2.5-49c1.078-2.902,1.744-5.902,2-9c.932-5.189,2.932-9.856,6-14c1.462-.958,2.795-2.124,4-3.5c8.134-.924,16.134-.258,24,2c5.333,2.667,10.667,5.333,16,8c20.363,12.013,39.363,26.013,57,42c7.901,8.404,16.234,16.238,25,23.5Z" clip-rule="evenodd" fill="#fdcb7b" fill-rule="evenodd"/></g><g transform="translate(-111.518555-117.402169)" clip-rule="evenodd"><path d="M292.5,426.5c-.904-.709-1.237-1.709-1-3-1.333,0-2.667,0-4,0c.262,1.478-.071,2.811-1,4-1.598-.985-3.265-1.151-5-.5-.737,2.901-2.403,5.068-5,6.5c25.57-42.731,57.903-79.731,97-111-.591-1.766-1.424-3.433-2.5-5-7.175-9.03-14.342-18.03-21.5-27-1.031-.749-2.198-1.415-3.5-2-.21-1.558-.71-2.891-1.5-4-4.157-7.644-8.823-14.977-14-22c.397-1.025,1.063-1.192,2-.5c22.681,16.509,44.014,34.676,64,54.5-41.276,30.604-75.942,67.27-104,110Z" clip-rule="evenodd" fill="#da8172" fill-rule="evenodd"/></g><g transform="translate(-111.518555-117.402169)" clip-rule="evenodd"><path d="M800.5,364.5c.933,5.522.266,11.022-2,16.5.457.414.791.914,1,1.5-2.263,7.194-3.929,14.528-5,22-.918,2.984-2.252,5.651-4,8-1.129-2.128-1.296-4.461-.5-7c3.791-11.83,6.958-23.83,9.5-36c.838-.342,1.172-1.008,1-2c0-1,0-2,0-3Z" opacity="0.8" clip-rule="evenodd" fill="#e7c4ba" fill-rule="evenodd"/></g><g transform="translate(-111.518555-117.402169)" clip-rule="evenodd"><path d="M220.5,356.5c0,.667,0,1.333,0,2-.284,1.915.049,3.581,1,5c2.148,12.228,5.148,24.228,9,36c.994,3.316,1.994,6.649,3,10-.252,1.573-.918,2.906-2,4-.333,0-.667,0-1,0-1.268-1.287-.935-2.287,1-3-.957-2.418-2.291-4.584-4-6.5.333-.333.667-.667,1-1-3.911-13.635-6.911-27.468-9-41.5.007-1.869.34-3.536,1-5Z" clip-rule="evenodd" fill="#edc2bc" fill-rule="evenodd"/></g><g transform="translate(-111.518555-117.402169)" clip-rule="evenodd"><path d="M349.5,290.5c7.158,8.97,14.325,17.97,21.5,27c1.076,1.567,1.909,3.234,2.5,5-39.097,31.269-71.43,68.269-97,111-2,2.667-4,5.333-6,8-4.172,5.685-8.339,11.352-12.5,17-1.356.88-2.856,1.214-4.5,1c0,1,0,2,0,3-1,0-2,0-3,0c.255-3.901-.412-7.568-2-11c.378-1.635,1.044-3.135,2-4.5-.82-1.8-1.486-3.634-2-5.5c2.054-5.109,4.387-10.109,7-15c1.936-4.371,4.269-8.537,7-12.5-.539-2.482-1.539-4.648-3-6.5-1.467-5.067-3.133-10.067-5-15-.65-1.935-.983-3.935-1-6-1.479-10.557-3.479-20.89-6-31-1.141-17.494-1.141-34.828,0-52-.813,19.509.354,38.843,3.5,58c1.74-1.216,2.74-2.882,3-5c.973,1.892,1.64,3.892,2,6c1-1.333,2-1.333,3,0c.494,1.634.66,3.301.5,5c3.667,0,7.333,0,11,0c0-3.667,0-7.333,0-11c1,4.667,2,9.333,3,14c1.558,10.23,4.058,20.23,7.5,30c7.357-10.722,15.19-21.056,23.5-31c4.678-4.679,9.011-9.679,13-15c12.868-12.368,26.201-24.201,40-35.5-1.136-1.145-2.136-2.312-3-3.5.073-1.527-.594-2.527-2-3-3.386-5.605-6.386-11.438-9-17.5.401-3.562,2.401-5.062,6-4.5Z" clip-rule="evenodd" fill="#220a44" fill-rule="evenodd"/></g><g transform="translate(-111.518555-117.402169)" clip-rule="evenodd"><path d="M754.5,215.5c3.715,7.776,7.215,15.776,10.5,24c1.604,4.646,1.77,9.146.5,13.5c1.559,4.732,2.892,9.565,4,14.5c1,0,2,0,3,0-.163,2.357.003,4.69.5,7c.383.556.883.889,1.5,1c1.155,5.262,1.988,10.596,2.5,16c.621,19.341.454,38.675-.5,58-2.317,11.879-4.65,23.879-7,36-2.803,9.569-6.136,19.069-10,28.5c27.756,36.428,42.756,77.595,45,123.5-2.022,56.88-25.355,102.714-70,137.5-11.573,7.757-23.239,15.257-35,22.5-6.735,2.866-13.402,6.033-20,9.5c8.028,1.264,14.861,4.764,20.5,10.5c3.449-3.623,7.283-6.623,11.5-9c18.6-3.202,31.6,3.798,39,21c1.089,19.316,1.256,38.649.5,58-.6,5.297-2.1,10.297-4.5,15-4.759,9.394-12.425,14.894-23,16.5-9.105,1.117-16.771-1.717-23-8.5-9.844,8.883-20.844,10.883-33,6c.214-1.644-.12-3.144-1-4.5c4.041-.173,8.041-.673,12-1.5-3.917-1.286-7.584-2.952-11-5-.922-3.982.578-6.316,4.5-7c2.826,1.84,5.993,2.506,9.5,2-.856,5.85.978,7.184,5.5,4c.236-2.264.736-4.431,1.5-6.5c1.626.195,3.293.195,5,0-.525-.692-1.192-1.192-2-1.5-1.165-8.982-1.332-17.982-.5-27c.383.556.883.889,1.5,1c8.135,8.974,16.135,18.14,24,27.5c6.771,1.532,11.271-.968,13.5-7.5.667-18.667.667-37.333,0-56-4.164-5.211-9.33-6.378-15.5-3.5-.711,1.255-1.544,2.421-2.5,3.5-.333,9.667-.667,19.333-1,29-8.471-11.798-17.637-22.964-27.5-33.5-3.424-.747-6.757-.58-10,.5-1.333,0-2.667,0-4,0c.459,3.882-.874,5.882-4,6-.522-4.071-2.856-6.071-7-6-13.622-1.131-27.288-1.298-41-.5-1.902,1.73-3.569,3.563-5,5.5-.678,19.539-1.345,39.206-2,59c.654,1.615,1.154,3.282,1.5,5c1.011.837,2.178,1.17,3.5,1-.219,1.175.114,2.175,1,3c2.247.874,4.58,1.208,7,1c0,1,0,2,0,3-2.369-.351-4.703-.518-7-.5.333.333.667.667,1,1-2.608,1.378-4.108,3.545-4.5,6.5-.833-1-1.667-2-2.5-3-2.586.71-4.586-.29-6-3-2.047,1.515-4.381,2.349-7,2.5-1.243,1.154-2.243,2.488-3,4-.833.167-1.667.333-2.5.5-9.415,1.153-18.915,1.153-28.5,0c0-1.333,0-2.667,0-4-2.667,0-5.333,0-8,0-.555-4.084.445-4.751,3-2c.929-1.189,1.262-2.522,1-4-3.079-.24-6.079.093-9,1-3.293-2.241-6.96-3.574-11-4-2.42-2.577-5.42-3.577-9-3c.011,2.047.344,4.047,1,6-.029,1.529-.696,2.696-2,3.5.808.308,1.475.808,2,1.5-1.774.687-3.441,1.52-5,2.5.837,1.011,1.17,2.178,1,3.5-5.682,1.04-11.348,1.04-17,0-2.166-2.983-5.166-5.816-9-8.5-1.244-.456-2.077.044-2.5,1.5-.833-1-1.667-2-2.5-3-2.87.622-5.704,1.289-8.5,2-.497,2.646-.664,5.313-.5,8-13.192,1.895-26.192,1.228-39-2-1.333-1.333-2.667-1.333-4,0-6.486,2.144-13.153,2.977-20,2.5-1.399-2.96-1.732-5.96-1-9-.51-1.826-1.344-1.993-2.5-.5-.896-2.525-.396-4.692,1.5-6.5c5.749-.148,11.415-.814,17-2c1.88-1.71,3.546-3.543,5-5.5-1.275-8.565-1.942-17.232-2-26c.167-8,.333-16,.5-24c2.182-9.46,3.349-9.293,3.5.5-1.634,6.324-2.134,12.824-1.5,19.5.333.333.667.667,1,1c.862-1.587,1.529-3.254,2-5c.333,11.667.667,23.333,1,35c1.011.837,2.178,1.17,3.5,1c1.64.82,3.307,1.653,5,2.5c9,.667,18,.667,27,0c7.558-.447,13.558-3.613,18-9.5.667-.667,1.333-1.333,2-2c2.056,1.122,3.389,2.789,4,5c.174,2.361.507,4.694,1,7c5.989,2.799,11.823,2.465,17.5-1c.333.333.667.667,1,1c.495-1.973.662-3.973.5-6c3.113.435,3.779-.565,2-3c1.254-1.834,1.921-3.834,2-6c1.333,0,2.667,0,4,0c0-2.333,0-4.667,0-7c2.469-.567,4.802-.567,7,0c12.004,22.113,29.337,27.779,52,17c6.99-3.974,10.99-9.974,12-18c.592-5.605-.241-10.939-2.5-16-.903-1.201-2.069-2.035-3.5-2.5-7.667-.667-15.333-.667-23,0-4.724,2.435-6.224,6.269-4.5,11.5.833,1,1.667,2,2.5,3c3.594.926,7.26,1.259,11,1-1.421,5.896-5.254,8.563-11.5,8-5.218-.049-9.051-2.383-11.5-7-4.679-10.845-3.679-21.178,3-31c1.024-7.323,1.024-14.657,0-22c2.047-.011,4.047-.344,6-1c2.054-1.694,4.388-2.861,7-3.5c4.912-.385,9.746-1.218,14.5-2.5c2.185.421,4.351.921,6.5,1.5-1.772,3.111-.939,4.944,2.5,5.5c4.332-.944,5.499-3.444,3.5-7.5c2.646-.497,5.313-.664,8-.5c0,1,0,2,0,3c1.333,0,2.667,0,4,0-.143-1.762.191-3.429,1-5-.346-1.196-.846-1.196-1.5,0-.483-.948-.649-1.948-.5-3c2.333-1.333,4.667-1.333,7,0c0-1,0-2,0-3c46.017-12.92,85.85-36.253,119.5-70c5.764-7.223,11.264-14.556,16.5-22c1.643-2.473,3.81-4.473,6.5-6c.29-1.544.956-2.877,2-4c.333.333.667.667,1,1c.394-2.455,1.56-4.455,3.5-6c1.277-2.534,1.277-5.034,0-7.5c1.849-3.161,3.016-6.661,3.5-10.5.739,1.721,1.573,3.387,2.5,5c1.362-2.351,2.695-4.684,4-7c.047-1.5-.619-2.5-2-3-.333-2.167-.667-4.333-1-6.5c1.63-20.889,1.13-41.722-1.5-62.5-1.241-4.676-2.574-9.343-4-14-.383-.556-.883-.889-1.5-1-3.237-7.861-6.404-15.861-9.5-24-2.34-5.355-5.174-10.355-8.5-15-11.528-22.405-25.528-43.071-42-62-15.924-21.259-34.258-40.259-55-57-3.222-3.622-6.888-6.788-11-9.5c8.197-11.019,16.53-21.852,25-32.5c1.644-.214,3.144.12,4.5,1c.667,2.333.667,4.667,0,7-4.376,6.919-8.876,13.752-13.5,20.5c5.23,4.077,10.564,7.91,16,11.5c12,11.333,23.667,23,35,35c2.986,4.317,6.32,8.317,10,12c5.324,7.304,10.657,14.637,16,22c3.002-8.705,5.669-17.371,8-26c2.22-5.706,3.72-11.706,4.5-18c4.053-30.259,3.219-60.259-2.5-90-.682-.743-1.349-1.409-2-2c.181-8.069-1.819-15.402-6-22-2.292-5.216-4.958-10.216-8-15-6.034-8.666-14.367-11.833-25-9.5-18.709,7.184-36.042,16.684-52,28.5.086-.996-.248-1.829-1-2.5c1.797-.231,3.464-1.064,5-2.5.929-1.189,1.262-2.522,1-4-3.748.707-7.414,1.707-11,3c1.333,2.333,1.333,4.667,0,7-3.014-.352-5.514-1.685-7.5-4-2.282,1.211-2.782,2.878-1.5,5-1.921,1.141-3.921,1.308-6,.5c1.333-.333,2.667-.667,4-1-3.72-1.392-5.72-.225-6,3.5-2.338-.937-4.505-2.27-6.5-4-1.5.5-3,1-4.5,1.5-2.271,2.782-4.937,4.949-8,6.5c2.333-2.667,4.667-5.333,7-8c23.163-20.761,49.163-37.261,78-49.5c19.532-5.409,36.366-.909,50.5,13.5c1.094,1.578,1.928,3.245,2.5,5Z" clip-rule="evenodd" fill="#240b45" fill-rule="evenodd"/></g><g transform="translate(-111.518555-117.402169)" clip-rule="evenodd"><path d="M414.5,391.5c13.351-1.142,24.185,3.524,32.5,14c6.615,11.161,4.115,19.327-7.5,24.5-16.889,1.462-28.722-5.705-35.5-21.5-1.578-8.849,1.922-14.516,10.5-17Z" clip-rule="evenodd" fill="#fefee8" fill-rule="evenodd"/></g><g transform="translate(-111.518555-117.402169)" clip-rule="evenodd"><path d="M595.5,391.5c9.396-1.591,17.229,1.076,23.5,8c.042,12.405-5.458,21.571-16.5,27.5-7.48,3.388-15.146,4.054-23,2-6.71-3.929-9.21-9.762-7.5-17.5c5.047-10.234,12.881-16.901,23.5-20Z" clip-rule="evenodd" fill="#fefeeb" fill-rule="evenodd"/></g><g transform="translate(-111.518555-117.402169)" clip-rule="evenodd"><path d="M230.5,399.5c1.668,2.603,3.334,5.269,5,8c1.333,0,2.667,0,4,0c0,6.667,0,13.333,0,20c3.211.488,6.044-.179,8.5-2c2.893,2.924,4.06,2.59,3.5-1c6.927-3.859,9.594-9.526,8-17c1.461,1.852,2.461,4.018,3,6.5-2.731,3.963-5.064,8.129-7,12.5-13.427,19.237-23.427,40.237-30,63-1.512,5.228-2.512,10.562-3,16-1.477,3.733-2.311,7.733-2.5,12-.667,13-.667,26,0,39c.299,6.637,1.466,12.97,3.5,19c1.579,7.743,3.579,15.41,6,23-1.951-.782-3.451-2.116-4.5-4c.617-1.595.284-2.928-1-4-2.719.944-5.552,1.277-8.5,1c1.564-3.815,2.564-7.815,3-12-.167-1.333-.333-2.667-.5-4-1.564-1.763-2.731-3.763-3.5-6c.333-1,1-1.667,2-2c.667,1.333,1.333,2.667,2,4c.333-.833.667-1.667,1-2.5-.343-8.904-1.677-17.571-4-26c.287-2.174.62-4.341,1-6.5-1.938-7.89-2.438-15.89-1.5-24c1.395-1.315,2.395-.981,3,1c.667-1.667.667-3.333,0-5-.893,1.211-1.726,1.211-2.5,0-1.776-4.479-1.109-8.479,2-12-1.888-5.438-2.554-11.105-2-17c2.357-.163,4.69.003,7,.5.691,1.067,1.191,2.234,1.5,3.5.374-2.367,1.541-4.2,3.5-5.5-.532-2.02-1.865-2.853-4-2.5.17-1.322-.163-2.489-1-3.5-4.667-.333-9.333-.667-14-1-.454-3.937-.787-7.77-1-11.5c4.738-13.13,10.571-25.13,17.5-36c1.046-1.59,2.213-3.09,3.5-4.5-.333-.333-.667-.667-1-1c1.172-.419,2.172-1.085,3-2-1.274-.977-1.274-1.811,0-2.5.333,1.333.667,1.333,1,0c1.082-1.094,1.748-2.427,2-4-1.006-3.351-2.006-6.684-3-10Z" clip-rule="evenodd" fill="#fafbed" fill-rule="evenodd"/></g><g transform="translate(-111.518555-117.402169)" clip-rule="evenodd"><path d="M474.5,427.5c8.259-.583,16.259.584,24,3.5c6.809,4.678,6.476,9.011-1,13-8.375,1.617-15.542-.549-21.5-6.5-2.396-3.13-2.896-6.464-1.5-10Z" clip-rule="evenodd" fill="#e07e71" fill-rule="evenodd"/></g><g transform="translate(-111.518555-117.402169)" clip-rule="evenodd"><path d="M535.5,427.5c4,0,8,0,12,0c.716,4.851-.617,9.018-4,12.5-3.438.92-6.438,2.587-9,5-11.152,2.838-15.985-1.329-14.5-12.5c4.985-2.607,10.152-4.274,15.5-5Z" clip-rule="evenodd" fill="#de8271" fill-rule="evenodd"/></g><g transform="translate(-111.518555-117.402169)" clip-rule="evenodd"><path d="M421.5,441.5c-5.765-2.477-11.765-4.143-18-5-4.201-1.236-8.535-1.236-13,0c.111-.617.444-1.117,1-1.5c5.333-.667,10.667-.667,16,0c5.437.89,10.103,3.056,14,6.5Z" clip-rule="evenodd" fill="#eac492" fill-rule="evenodd"/></g><g transform="translate(-111.518555-117.402169)" clip-rule="evenodd"><path d="M629.5,436.5c-4.679-.166-9.345.001-14,.5-4.256,1.807-8.589,3.307-13,4.5c8.29-5.748,17.29-7.415,27-5Z" opacity="0.929" clip-rule="evenodd" fill="#4c3132" fill-rule="evenodd"/></g><g transform="translate(-111.518555-117.402169)" clip-rule="evenodd"><path d="M403.5,436.5c-7.871.308-15.537,1.641-23,4c2.925-2.196,6.258-3.529,10-4c4.465-1.236,8.799-1.236,13,0Z" opacity="0.565" clip-rule="evenodd" fill="#351f29" fill-rule="evenodd"/></g><g transform="translate(-111.518555-117.402169)" clip-rule="evenodd"><path d="M629.5,436.5c17.024,2.695,28.69,12.029,35,28-3.052-1.277-4.385-3.61-4-7-3.064-2.52-6.564-4.52-10.5-6-.308.808-.808,1.475-1.5,2-2.712-1.76-5.712-2.427-9-2c0-1.333,0-2.667,0-4-1.333,0-2.667,0-4,0-1.333-3-1.333-6,0-9-5.57-.429-10.904.238-16,2c.208,2.42-.126,4.753-1,7c14.673,3.678,18.84,12.345,12.5,26-1.965,2.05-4.132,3.717-6.5,5-5.363,1.824-10.029.824-14-3-5.874-3.767-7.874-9.1-6-16-.438-1.006-1.104-1.006-2,0-1.333-2-1.333-4,0-6c2.964,1.621,4.964.788,6-2.5c1.293-.49,2.627-.657,4-.5c0-1,0-2,0-3-2.424.308-4.757-.026-7-1c1.372-2.12.705-3.12-2-3c.398,4.963-1.269,5.963-5,3-1.349.346-2.683.679-4,1c1.943-2.971,4.609-4.971,8-6c4.411-1.193,8.744-2.693,13-4.5c4.655-.499,9.321-.666,14-.5Z" clip-rule="evenodd" fill="#230d3d" fill-rule="evenodd"/></g><g transform="translate(-111.518555-117.402169)" clip-rule="evenodd"><path d="M427.5,446.5c3.8,2.463,6.467,5.796,8,10-1.333-.667-2.333-1.667-3-3-2.08-2.073-3.746-4.407-5-7Z" opacity="0.565" clip-rule="evenodd" fill="#38232f" fill-rule="evenodd"/></g><g transform="translate(-111.518555-117.402169)" clip-rule="evenodd"><path d="M664.5,464.5c.348,5.873,1.014,11.707,2,17.5-.146,4.595-.813,9.095-2,13.5-3.843,10.511-10.843,18.178-21,23-6.703,1.841-13.536,3.175-20.5,4-6.335-.059-12.502-1.059-18.5-3-.667,0-1-.333-1-1-2.667-2.333-5.333-4.667-8-7c.157-1.373-.01-2.707-.5-4-.914,1.154-1.747.987-2.5-.5c1.316-1.978.816-3.478-1.5-4.5-.678-2.402-.178-4.568,1.5-6.5-.648-1.44-.981-2.94-1-4.5c2.619.268,5.119-.065,7.5-1c.499-3.652.665-7.318.5-11c2.948-.277,5.781.056,8.5,1c1.085-.793,2.252-1.46,3.5-2c3.836,1.813,7.836,2.313,12,1.5.556-.383.889-.883,1-1.5c2.368-1.283,4.535-2.95,6.5-5c6.34-13.655,2.173-22.322-12.5-26c.874-2.247,1.208-4.58,1-7c5.096-1.762,10.43-2.429,16-2-1.333,3-1.333,6,0,9c1.333,0,2.667,0,4,0c0,1.333,0,2.667,0,4c3.288-.427,6.288.24,9,2c.692-.525,1.192-1.192,1.5-2c3.936,1.48,7.436,3.48,10.5,6-.385,3.39.948,5.723,4,7Z" clip-rule="evenodd" fill="#220b47" fill-rule="evenodd"/></g><g transform="translate(-111.518555-117.402169)" clip-rule="evenodd"><path d="M610.5,475.5c-5.541-6.03-6.374-12.697-2.5-20c9.031-7.288,17.031-6.288,24,3c2.229,9.045-.938,15.211-9.5,18.5-4.19.81-8.19.31-12-1.5Z" clip-rule="evenodd" fill="#fafaeb" fill-rule="evenodd"/></g><g transform="translate(-111.518555-117.402169)" clip-rule="evenodd"><path d="M674.5,356.5c1.44.863,2.774.863,4,0c3.775,5.902,8.109,11.402,13,16.5.333.167.667.333,1,.5c1.143-3.625,2.476-3.791,4-.5c4.667.667,7.333,3.333,8,8-.667.333-1.333.667-2,1c4.456,1.73,8.456,4.23,12,7.5c16.472,18.929,30.472,39.595,42,62c2.427,6.041,4.761,12.207,7,18.5-1.978,4.063-1.812,8.23.5,12.5.667-1.333,1.333-2.667,2-4c5.795,5.738,7.795,12.738,6,21-1.011-.837-2.178-1.17-3.5-1c.134,1.792-.199,3.458-1,5-6.647-23.107-16.481-44.773-29.5-65-18.323-29.495-39.489-56.828-63.5-82Z" clip-rule="evenodd" fill="#e18b76" fill-rule="evenodd"/></g><g transform="translate(-111.518555-117.402169)" clip-rule="evenodd"><path d="M414.5,455.5c3.637,5.368,3.97,11.035,1,17-8.58,7.28-16.414,6.613-23.5-2-3.476-8.871-.976-15.371,7.5-19.5c5.902-1.376,10.902.124,15,4.5Z" clip-rule="evenodd" fill="#fbfaeb" fill-rule="evenodd"/></g><g transform="translate(-111.518555-117.402169)" clip-rule="evenodd"><path d="M594.5,447.5c-2.442,3.229-5.108,6.229-8,9c1.522-4.064,4.189-7.064,8-9Z" opacity="0.565" clip-rule="evenodd" fill="#2c1c25" fill-rule="evenodd"/></g><g transform="translate(-111.518555-117.402169)" clip-rule="evenodd"><path d="M292.5,426.5c-13.675,20.325-24.841,41.992-33.5,65-4.857,17.184-5.69,34.518-2.5,52-1.58-2.682-2.746-5.682-3.5-9-.333-4.667-.667-9.333-1-14-.946,2.288-2.113,4.455-3.5,6.5.333.333.667.667,1,1-2.383.065-3.05.898-2,2.5-.5,1-1,2-1.5,3-.667,1.333-1.333,1.333-2,0c.123-10.725.957-21.392,2.5-32c1.913-9.575,4.746-18.908,8.5-28c4.922-10.842,10.088-21.508,15.5-32c2-2.667,4-5.333,6-8c2.597-1.432,4.263-3.599,5-6.5c1.735-.651,3.402-.485,5,.5.929-1.189,1.262-2.522,1-4c1.333,0,2.667,0,4,0-.237,1.291.096,2.291,1,3Z" clip-rule="evenodd" fill="#dd8773" fill-rule="evenodd"/></g><g transform="translate(-111.518555-117.402169)" clip-rule="evenodd"><path d="M610.5,475.5c3.971,3.824,8.637,4.824,14,3-.111.617-.444,1.117-1,1.5-4.164.813-8.164.313-12-1.5-1.248.54-2.415,1.207-3.5,2-2.719-.944-5.552-1.277-8.5-1c.165,3.682-.001,7.348-.5,11-2.381.935-4.881,1.268-7.5,1c.019,1.56.352,3.06,1,4.5-1.678,1.932-2.178,4.098-1.5,6.5c2.316,1.022,2.816,2.522,1.5,4.5.753,1.487,1.586,1.654,2.5.5.49,1.293.657,2.627.5,4-3.446-2.479-6.113-5.646-8-9.5c1.052-1.716.386-2.716-2-3-.899-1.652-1.899-3.152-3-4.5-.904-.709-1.237-1.709-1-3-.712-6.643-1.046-13.309-1-20c.101-5.853,2.101-10.853,6-15c2.892-2.771,5.558-5.771,8-9c1.317-.321,2.651-.654,4-1c3.731,2.963,5.398,1.963,5-3c2.705-.12,3.372.88,2,3c2.243.974,4.576,1.308,7,1c0,1,0,2,0,3-1.373-.157-2.707.01-4,.5-1.036,3.288-3.036,4.121-6,2.5-1.333,2-1.333,4,0,6c.896-1.006,1.562-1.006,2,0-1.874,6.9.126,12.233,6,16Z" clip-rule="evenodd" fill="#230d43" fill-rule="evenodd"/></g><g transform="translate(-111.518555-117.402169)" clip-rule="evenodd"><path d="M255.5,426.5c-2.613,4.891-4.946,9.891-7,15-3.933,5.69-7.266,11.857-10,18.5c2.436,1.332,2.436,2.499,0,3.5-.808,1.923-1.308,3.923-1.5,6-1.667,1.667-3.333,3.333-5,5-1.741,4.554-3.074,9.221-4,14-.671.752-1.504,1.086-2.5,1c6.573-22.763,16.573-43.763,30-63Z" clip-rule="evenodd" fill="#1f133a" fill-rule="evenodd"/></g><g transform="translate(-111.518555-117.402169)" clip-rule="evenodd"><path d="M248.5,441.5c.514,1.866,1.18,3.7,2,5.5-.956,1.365-1.622,2.865-2,4.5c1.588,3.432,2.255,7.099,2,11c1,0,2,0,3,0c0-1,0-2,0-3c1.644.214,3.144-.12,4.5-1c4.161-5.648,8.328-11.315,12.5-17-5.412,10.492-10.578,21.158-15.5,32-3.754,9.092-6.587,18.425-8.5,28-1.919,4.357-2.919,9.023-3,14-.333,0-.667,0-1,0c.165-3.35-.002-6.683-.5-10-4.445-2.513-4.612-5.18-.5-8-1.611-2.72-2.444-5.72-2.5-9-2.064-1.091-4.231-1.258-6.5-.5-.837,1.011-1.17,2.178-1,3.5-1,0-2,0-3,0c.193,2.808.86,5.475,2,8-1,0-2,0-3,0c0,1.333,0,2.667,0,4-1.333,0-2.667,0-4,0c.105,7.405-.562,14.738-2,22c.04,1.929.373,3.762,1,5.5-.594.464-1.261.631-2,.5.014-8.728.68-17.395,2-26c.488-5.438,1.488-10.772,3-16c.996.086,1.829-.248,2.5-1c.926-4.779,2.259-9.446,4-14c1.667-1.667,3.333-3.333,5-5c.192-2.077.692-4.077,1.5-6c2.436-1.001,2.436-2.168,0-3.5c2.734-6.643,6.067-12.81,10-18.5Z" clip-rule="evenodd" fill="#250c42" fill-rule="evenodd"/></g><g transform="translate(-111.518555-117.402169)" clip-rule="evenodd"><path d="M403.5,436.5c6.235.857,12.235,2.523,18,5c1.975,1.637,3.975,3.304,6,5c1.254,2.593,2.92,4.927,5,7-3.936-1.602-6.936-4.268-9-8-.586.209-1.086.543-1.5,1-.923-1.259-1.757-2.592-2.5-4-1.783.848-2.283,2.181-1.5,4c1.566-.561,2.899.106,4,2c.333-.333.667-.667,1-1c.492,1.049.326,2.049-.5,3c1.124,1.414,2.124,2.914,3,4.5-4.13.311-7.797-.856-11-3.5-.406,1.057-.406,2.391,0,4-4.098-4.376-9.098-5.876-15-4.5-8.476,4.129-10.976,10.629-7.5,19.5c7.086,8.613,14.92,9.28,23.5,2-1.046,2.627-2.38,5.127-4,7.5-3.959-.158-7.959-.325-12-.5.268,2.619-.065,5.119-1,7.5-4.989.499-9.989.666-15,.5c0,2.667,0,5.333,0,8c2.667,0,5.333,0,8,0c0,1.333,0,2.667,0,4c1.333,0,2.667,0,4,0c0,2.667,0,5.333,0,8-1.333,0-2.667,0-4,0c.317,3.072-.016,6.072-1,9-2.412-1.318-4.746-1.151-7,.5c1.473.71,2.14,1.876,2,3.5c4.968-.109,9.801.558,14.5,2c4.371-1.363,8.871-2.029,13.5-2-5.629,2.438-11.629,3.438-18,3-19.194-2.354-32.027-12.688-38.5-31-1.156-3.918-1.656-7.918-1.5-12-.31-3.213.023-6.213,1-9c2.142-3.3,3.475-6.967,4-11c4.333-9,11-15.667,20-20c7.463-2.359,15.129-3.692,23-4Z" clip-rule="evenodd" fill="#250d44" fill-rule="evenodd"/></g><g transform="translate(-111.518555-117.402169)" clip-rule="evenodd"><path d="M432.5,453.5c.667,1.333,1.667,2.333,3,3c6.426,11.337,7.76,23.337,4,36-1.58,3.549-2.914,7.216-4,11-3.312,6.31-7.978,11.31-14,15-2.612.871-5.279,1.537-8,2-4.629-.029-9.129.637-13.5,2-4.699-1.442-9.532-2.109-14.5-2c.14-1.624-.527-2.79-2-3.5c2.254-1.651,4.588-1.818,7-.5.984-2.928,1.317-5.928,1-9c1.333,0,2.667,0,4,0c0-2.667,0-5.333,0-8-1.333,0-2.667,0-4,0c0-1.333,0-2.667,0-4-2.667,0-5.333,0-8,0c0-2.667,0-5.333,0-8c5.011.166,10.011-.001,15-.5.935-2.381,1.268-4.881,1-7.5c4.041.175,8.041.342,12,.5c1.62-2.373,2.954-4.873,4-7.5c2.97-5.965,2.637-11.632-1-17-.406-1.609-.406-2.943,0-4c3.203,2.644,6.87,3.811,11,3.5-.876-1.586-1.876-3.086-3-4.5.826-.951.992-1.951.5-3-.333.333-.667.667-1,1-1.101-1.894-2.434-2.561-4-2-.783-1.819-.283-3.152,1.5-4c.743,1.408,1.577,2.741,2.5,4c.414-.457.914-.791,1.5-1c2.064,3.732,5.064,6.398,9,8Z" clip-rule="evenodd" fill="#250a46" fill-rule="evenodd"/></g><g transform="translate(-111.518555-117.402169)" clip-rule="evenodd"><path d="M435.5,456.5c2.794,2.319,4.628,5.319,5.5,9c4.693,13.79,2.859,26.456-5.5,38c1.086-3.784,2.42-7.451,4-11c3.76-12.663,2.426-24.663-4-36Z" clip-rule="evenodd" fill="#311a36" fill-rule="evenodd"/></g><g transform="translate(-111.518555-117.402169)" clip-rule="evenodd"><path d="M756.5,451.5c3.326,4.645,6.16,9.645,8.5,15c3.096,8.139,6.263,16.139,9.5,24c7.708,26.04,8.875,52.373,3.5,79-1.084,6.035-2.917,11.702-5.5,17-.184-10.773-1.351-21.439-3.5-32-1.419-2.493-2.919-4.826-4.5-7c0-1.333,0-2.667,0-4c1.121-2.454,1.954-5.121,2.5-8c.5-10.661.667-21.328.5-32c.801-1.542,1.134-3.208,1-5c1.322-.17,2.489.163,3.5,1c1.795-8.262-.205-15.262-6-21-.667,1.333-1.333,2.667-2,4-2.312-4.27-2.478-8.437-.5-12.5-2.239-6.293-4.573-12.459-7-18.5Z" clip-rule="evenodd" fill="#da847e" fill-rule="evenodd"/></g><g transform="translate(-111.518555-117.402169)" clip-rule="evenodd"><path d="M800.5,364.5c0,1,0,2,0,3-.838.342-1.172,1.008-1,2-2.542,12.17-5.709,24.17-9.5,36-.796,2.539-.629,4.872.5,7c3.207,5.563,6.707,11.563,10.5,18c1.171,1.393,2.671,2.227,4.5,2.5-2.5.833-2.667,2-.5,3.5.333-.333.667-.667,1-1c.798,3.393,1.798,6.726,3,10c6.574,12.81,11.74,26.143,15.5,40-.209.586-.543,1.086-1,1.5c2.637,10.321,4.47,20.821,5.5,31.5.362,13.261.528,26.428.5,39.5-1.622,5.871-2.955,11.871-4,18c.333,1,.667,2,1,3-.392,1.011-1.059,1.511-2,1.5.487.946.82,1.946,1,3-.695.976-1.362,1.976-2,3-11.444,41.605-33.944,75.938-67.5,103-.667,1-.667,2,0,3c3.702,3.87,7.536,7.537,11.5,11c5.001,8.668,9.501,17.668,13.5,27c4.196,22.713,3.03,44.713-3.5,66c0,.333,0,.667,0,1-.667,0-1,.333-1,1-10.916,32.096-33.249,47.263-67,45.5-3.362-.77-6.529-1.937-9.5-3.5-12.6,6.622-25.266,6.622-38,0-8.352,3.903-17.186,5.57-26.5,5-10.626.76-20.626-1.24-30-6-13.408,5.741-27.408,7.574-42,5.5-7.027-1.619-13.694-4.119-20-7.5-14.769,9.312-30.102,10.312-46,3-16.268,6.098-32.601,6.432-49,1-8.108,2.779-16.441,3.612-25,2.5-2.943-.29-5.443-1.456-7.5-3.5-12.174,6.64-24.341,6.64-36.5,0-12.708,6.588-25.375,6.588-38,0-27.203,10.196-51.87,6.196-74-12-.342-.838-1.008-1.172-2-1-5.633-5.276-10.3-11.276-14-18c0-.667-.333-1-1-1c0-.333,0-.667,0-1c0-.667-.333-1-1-1-.333-2.667-.667-2.667-1,0-3.66-1.374-3.993-3.374-1-6-1.644-1.408-2.978-3.242-4-5.5.235-.873.569-1.707,1-2.5-4.697-16.008-6.197-32.341-4.5-49c.983-7.1,2.816-13.934,5.5-20.5-.333-.333-.667-.667-1-1c3.595-6.376,7.262-12.542,11-18.5.667,0,1-.333,1-1c2.935-3.438,6.101-6.771,9.5-10c.667-1,.667-2,0-3-30.337-24.343-51.504-55.01-63.5-92c.172-.992-.162-1.658-1-2c0-.333,0-.667,0-1c0-.667-.333-1-1-1c0-1.333,0-2.667,0-4c0-.667-.333-1-1-1c0-.333,0-.667,0-1c.172-.992-.162-1.658-1-2c0-.333,0-.667,0-1-6.45-31.605-6.617-63.271-.5-95c1.923-9.269,4.756-18.269,8.5-27-1.277-1.422-.943-2.422,1-3c.213,3.73.546,7.563,1,11.5c4.667.333,9.333.667,14,1c.837,1.011,1.17,2.178,1,3.5c2.135-.353,3.468.48,4,2.5-1.959,1.3-3.126,3.133-3.5,5.5-.309-1.266-.809-2.433-1.5-3.5-2.31-.497-4.643-.663-7-.5-.554,5.895.112,11.562,2,17-3.109,3.521-3.776,7.521-2,12c.774,1.211,1.607,1.211,2.5,0c.667,1.667.667,3.333,0,5-.605-1.981-1.605-2.315-3-1-.938,8.11-.438,16.11,1.5,24-.38,2.159-.713,4.326-1,6.5c2.323,8.429,3.657,17.096,4,26-.333.833-.667,1.667-1,2.5-.667-1.333-1.333-2.667-2-4-1,.333-1.667,1-2,2c.769,2.237,1.936,4.237,3.5,6c.167,1.333.333,2.667.5,4-.436,4.185-1.436,8.185-3,12c2.948.277,5.781-.056,8.5-1c1.284,1.072,1.617,2.405,1,4c1.049,1.884,2.549,3.218,4.5,4c10.735,24.937,26.068,46.77,46,65.5c18.692,15.681,39.025,28.847,61,39.5c1.663,2.033,3.663,3.866,6,5.5-.608.87-1.441,1.37-2.5,1.5-13.33-5.877-26.997-6.543-41-2-3.047-1.746-4.214-.746-3.5,3-2.509,1.421-4.843,3.088-7,5-17.331,11.849-23.331,28.015-18,48.5-.454,1.939-1.121,3.772-2,5.5-3.088,8.435-2.088,16.435,3,24-.172.992.162,1.658,1,2c7.057,11.874,17.391,19.374,31,22.5c10.592,1.338,20.926.338,31-3c2.084-.697,3.751-1.864,5-3.5c1.083-.039,2.083-.373,3-1c7.888,7.966,17.222,10.133,28,6.5c3.504-1.918,6.837-4.084,10-6.5c10.846,9.897,22.18,10.563,34,2c3.53,2.011,7.197,3.845,11,5.5c7.217,1.62,13.551.12,19-4.5c1.333-1.333,2.667-1.333,4,0c1.249,1.636,2.916,2.803,5,3.5c10.667.667,21.333.667,32,0c5.395-.743,10.395-2.576,15-5.5c9.553,7.854,19.887,9.02,31,3.5c3.671-3.171,7.004-6.671,10-10.5c15.685,14.611,33.685,18.111,54,10.5c3.103-1.439,5.936-3.273,8.5-5.5c2.128,2.308,4.628,3.974,7.5,5c1.1,1.058,2.434,1.892,4,2.5c12.84.827,25.507.66,38-.5c3.602.033,6.602-1.301,9-4c1.529,1.263,3.195,2.263,5,3c12.156,4.883,23.156,2.883,33-6c6.229,6.783,13.895,9.617,23,8.5c10.575-1.606,18.241-7.106,23-16.5c3.268-3.611,5.101-7.945,5.5-13c.667-18.667.667-37.333,0-56-.21-1.558-.71-2.891-1.5-4-7.4-17.202-20.4-24.202-39-21-2.287.224-4.453.891-6.5,2-3.086-2.101-3.252-4.434-.5-7-2.407-1.405-4.074-3.405-5-6c11.761-7.243,23.427-14.743,35-22.5c44.645-34.786,67.978-80.62,70-137.5-2.244-45.905-17.244-87.072-45-123.5c3.864-9.431,7.197-18.931,10-28.5.996.086,1.829-.248,2.5-1c2.034-11.708,3.534-23.374,4.5-35c.954-19.325,1.121-38.659.5-58-.512-5.404-1.345-10.738-2.5-16-2.865-19.409-8.365-38.076-16.5-56-.949-1.593-2.115-2.926-3.5-4-.572-1.755-1.406-3.422-2.5-5-14.134-14.409-30.968-18.909-50.5-13.5-28.837,12.239-54.837,28.739-78,49.5-1.992-.172-3.658.495-5,2-1.384-2.633-2.718-2.633-4,0c.477.978,1.143,1.811,2,2.5-.949.617-1.782.451-2.5-.5-.483.948-.649,1.948-.5,3-1.052-.149-2.052.017-3,.5c1.231,1.183,1.231,2.349,0,3.5-1.533-1.789-2.533-3.789-3-6-1.333,0-2.667,0-4,0c0,1.333,0,2.667,0,4-2.667,0-5.333,0-8,0c1.667,7-1,9.667-8,8-.667,9.333-1.333,9.333-2,0-1.333,0-2.667,0-4,0c.262-1.478-.071-2.811-1-4-1.342,1.505-3.008,2.172-5,2c0-1.333,0-2.667,0-4-2.667,0-5.333,0-8,0c.345,2.988-.988,4.321-4,4-3.012.321-4.345-1.012-4-4-8.931.498-17.597-.502-26-3-3.081,2.627-6.581,4.627-10.5,6-1.662.112-2.829-.554-3.5-2c2.667-.667,5.333-1.333,8-2-.167-.333-.333-.667-.5-1-11.046-1.82-21.879-.82-32.5,3-4.052-.718-6.385-3.052-7-7-1.333,0-2.667,0-4,0c0,1.333,0,2.667,0,4-6.427-1.738-9.094.595-8,7-5.344-.166-10.677.001-16,.5-.667,1-1.333,2-2,3-4.096.221-7.43,1.721-10,4.5-1.342,1.293-3.009,2.126-5,2.5-4.585,1.641-9.251,2.641-14,3-20.881-24.399-44.881-44.899-72-61.5-12.151-7.74-25.151-13.907-39-18.5-25.265-4.868-43.265,4.298-54,27.5-.333,0-.667,0-1,0-2.749,2.997-4.583,6.664-5.5,11-.667,1.333-1.333,1.333-2,0c.224,4.551-1.443,8.218-5,11-.17-2.215-.837-4.215-2-6-.789,3.516-.289,6.849,1.5,10-1.735,2.815-2.235,5.815-1.5,9c.743-2.145,1.576-2.311,2.5-.5-1.77,10.247-4.27,20.414-7.5,30.5-1.011.837-2.178,1.17-3.5,1-.299,2.104.034,4.104,1,6c.692-.525,1.192-1.192,1.5-2c.273,1.601.773,3.101,1.5,4.5-.788,3.076-1.288,6.242-1.5,9.5-1.102-5.23-1.935-5.23-2.5,0c.287,1.986.953,3.82,2,5.5-3.075,8.286-2.408,16.286,2,24-.206,1.865-.872,3.532-2,5c1.352,1.964,2.186,4.131,2.5,6.5.169,8.384.836,16.718,2,25c.667,1.333,1.333,1.333,2,0c.498,3.317.665,6.65.5,10c1,0,2,0,3,0-.351,3.659.649,6.659,3,9c1.867,4.933,3.533,9.933,5,15c1.594,7.474-1.073,13.141-8,17c.56,3.59-.607,3.924-3.5,1-2.456,1.821-5.289,2.488-8.5,2c0-6.667,0-13.333,0-20-1.333,0-2.667,0-4,0-1.666-2.731-3.332-5.397-5-8-3.852-11.772-6.852-23.772-9-36c.284-1.915-.049-3.581-1-5c0-.667,0-1.333,0-2-3.121-34.033-1.621-68.366,4.5-103c4.638-21.786,13.638-42.119,27-61c.333.333.667.667,1,1c19.885-22.921,44.551-30.255,74-22c34.661,11.447,65.161,30.28,91.5,56.5c1.667.333,3.333.667,5,1-.667.667-1.333,1.333-2,2c4.673,4.34,9.006,9.006,13,14c16.564-2.91,33.231-5.577,50-8c7.27-.368,14.437-1.201,21.5-2.5c5.214,1.114,10.214,1.114,15,0c7.365,1.595,14.865,2.595,22.5,3c1.272-.07,2.438-.403,3.5-1c3.359,2.528,6.692,3.195,10,2c9.422,2.564,18.922,4.897,28.5,7c12.769-12.223,25.769-24.223,39-36c15.578-11.907,31.745-21.907,48.5-30c.667-2.667,1.333-2.667,2,0c15.714-9.343,33.547-12.843,53.5-10.5c1.5.5,3,1,4.5,1.5.945-.405,1.612-1.072,2-2c.374.916.874,1.75,1.5,2.5c6.091,1.88,11.757,4.547,17,8c1.612.72,3.112.554,4.5-.5c2.545,6.216,6.878,10.882,13,14-.253,2.857,1.081,5.191,4,7c10.996,16.84,18.663,35.84,23,57c6.5,33.46,7.666,66.46,3.5,99c.94,2.632,1.107,5.298.5,8-1.087-2.432-1.587-2.098-1.5,1Z" clip-rule="evenodd" fill="#fdfdec" fill-rule="evenodd"/></g><g transform="translate(-111.518555-117.402168)" clip-rule="evenodd"><path d="M257.5,547.5c2.334,15.503,7.168,30.17,14.5,44c14.787,23.788,33.954,43.288,57.5,58.5c31.997,20.278,66.664,33.778,104,40.5c32.153,7.054,64.82,9.554,98,7.5c12.192-.748,24.192-1.915,36-3.5c47.377-5.704,91.044-21.537,131-47.5c17.873-13.539,33.373-29.373,46.5-47.5c10.177-16.008,16.677-33.342,19.5-52c1.581,2.174,3.081,4.507,4.5,7c2.149,10.561,3.316,21.227,3.5,32-2.575,9.148-6.242,17.815-11,26-5.236,7.444-10.736,14.777-16.5,22-33.65,33.747-73.483,57.08-119.5,70-30.929,8.267-62.262,13.267-94,15-19.719.438-39.386-.228-59-2-12.74-.677-25.407-2.011-38-4-53.866-9.774-101.866-31.941-144-66.5-14.973-14.454-27.14-30.954-36.5-49.5-2.368-4.4-3.868-9.066-4.5-14c.319-12.603,2.985-24.603,8-36Z" clip-rule="evenodd" fill="#d6bcda" fill-rule="evenodd"/></g><g transform="translate(-111.518555-117.402168)" clip-rule="evenodd"><path d="M774.5,490.5c.617.111,1.117.444,1.5,1c1.426,4.657,2.759,9.324,4,14c2.63,20.778,3.13,41.611,1.5,62.5.333,2.167.667,4.333,1,6.5c1.381.5,2.047,1.5,2,3-1.305,2.316-2.638,4.649-4,7-.927-1.613-1.761-3.279-2.5-5-.484,3.839-1.651,7.339-3.5,10.5c1.277,2.466,1.277,4.966,0,7.5-1.94,1.545-3.106,3.545-3.5,6-.333-.333-.667-.667-1-1-1.044,1.123-1.71,2.456-2,4-2.69,1.527-4.857,3.527-6.5,6c4.758-8.185,8.425-16.852,11-26c2.583-5.298,4.416-10.965,5.5-17c5.375-26.627,4.208-52.96-3.5-79Z" clip-rule="evenodd" fill="#250938" fill-rule="evenodd"/></g><g transform="translate(-111.518555-117.402169)" clip-rule="evenodd"><path d="M242.5,515.5c.333,0,.667,0,1,0-.809,11.982-1.142,23.982-1,36-1.21-11.846-1.21-23.846,0-36Z" clip-rule="evenodd" fill="#a96773" fill-rule="evenodd"/></g><g transform="translate(-111.518555-117.402168)" clip-rule="evenodd"><path d="M222.5,505.5c-1.32,8.605-1.986,17.272-2,26-.121,14.754.879,29.42,3,44-2.034-6.03-3.201-12.363-3.5-19-.667-13-.667-26,0-39c.189-4.267,1.023-8.267,2.5-12Z" opacity="0.565" clip-rule="evenodd" fill="#1b122d" fill-rule="evenodd"/></g><g transform="translate(-111.518555-117.402168)" clip-rule="evenodd"><path d="M246.5,501.5c-1.543,10.608-2.377,21.275-2.5,32c.667,1.333,1.333,1.333,2,0c.5-1,1-2,1.5-3-1.05-1.602-.383-2.435,2-2.5-.333-.333-.667-.667-1-1c1.387-2.045,2.554-4.212,3.5-6.5.333,4.667.667,9.333,1,14c.754,3.318,1.92,6.318,3.5,9c.904.709,1.237,1.709,1,3c0,.333,0,.667,0,1-5.015,11.397-7.681,23.397-8,36-4.035-10.174-6.368-20.84-7-32-.142-12.018.191-24.018,1-36c.081-4.977,1.081-9.643,3-14Z" clip-rule="evenodd" fill="#da867e" fill-rule="evenodd"/></g><g transform="translate(-111.518555-117.402169)" clip-rule="evenodd"><path d="M664.5,464.5c1.758,3.354,2.758,7.021,3,11c.166,4.679-.001,9.345-.5,14-.566,2.223-1.4,4.223-2.5,6c1.187-4.405,1.854-8.905,2-13.5-.986-5.793-1.652-11.627-2-17.5Z" opacity="0.565" clip-rule="evenodd" fill="#1d102c" fill-rule="evenodd"/></g><g transform="translate(-111.518555-117.402169)" clip-rule="evenodd"><path d="M579.5,475.5c-.166,4.346.001,8.679.5,13c.232,1.237.732,2.237,1.5,3-.237,1.291.096,2.291,1,3c.129,1.716.462,3.383,1,5-.958-.453-1.792-1.119-2.5-2-2.579-7.264-3.079-14.597-1.5-22Z" clip-rule="evenodd" fill="#dcb889" fill-rule="evenodd"/></g><g transform="translate(-111.518555-117.402169)" clip-rule="evenodd"><path d="M667.5,475.5c.961,1.765,1.295,3.765,1,6c31.326.746,57.493,12.746,78.5,36c6.104,8.56,11.938,17.226,17.5,26c0,1.333,0,2.667,0,4-2.823,18.658-9.323,35.992-19.5,52-13.127,18.127-28.627,33.961-46.5,47.5-39.956,25.963-83.623,41.796-131,47.5-34.309,2.284-68.642,2.618-103,1c0-1,0-2,0-3-10.44.321-20.773-.346-31-2-37.336-6.722-72.003-20.222-104-40.5-23.546-15.212-42.713-34.712-57.5-58.5-7.332-13.83-12.166-28.497-14.5-44c0-.333,0-.667,0-1c19.453-41.429,52.12-63.429,98-66-.156,4.082.344,8.082,1.5,12c6.473,18.312,19.306,28.646,38.5,31c4.06,1.517,8.393,2.184,13,2c3.186-.002,6.186-.335,9-1c3.691-.285,7.191-1.285,10.5-3c7.253-5.043,14.419-10.21,21.5-15.5c49.986-28.927,96.653-24.26,140,14c3.256,1.474,6.589,2.64,10,3.5c3.723,1.497,7.723,2.163,12,2c2.667-.167,5.333-.333,8-.5-.556-.383-.889-.883-1-1.5c9.02,1.109,17.353-.557,25-5c10.157-4.822,17.157-12.489,21-23c1.1-1.777,1.934-3.777,2.5-6c.499-4.655.666-9.321.5-14Z" clip-rule="evenodd" fill="#fdfeeb" fill-rule="evenodd"/></g><g transform="translate(-111.518555-117.402169)" clip-rule="evenodd"><path d="M502.5,591.5c-10.385,7.629-22.051,10.129-35,7.5-4.439-1.056-8.439-2.889-12-5.5c2.287.224,4.453.891,6.5,2c2.631-1.568,4.797-1.068,6.5,1.5c12.024,2.006,23.357.173,34-5.5Z" opacity="0.584" clip-rule="evenodd" fill="#150f37" fill-rule="evenodd"/></g><g transform="translate(-111.518555-117.402168)" clip-rule="evenodd"><path d="M575.5,588.5c-.162-2.027.005-4.027.5-6c2.502-2.453,5.169-4.786,8-7c2.022-3.721,3.188-7.721,3.5-12c.77-6.896-2.23-9.563-9-8-1.231,5.619-3.065,10.952-5.5,16-2.371,2.138-4.204,4.638-5.5,7.5-1.451-.263-2.784-.096-4,.5.333.667.667,1.333,1,2-7.47,2.639-15.136,3.472-23,2.5-.556-.383-.889-.883-1-1.5c18.719.725,30.552-7.942,35.5-26c5.574-4.57,9.908-3.57,13,3-.169,11.672-4.669,21.339-13.5,29Z" clip-rule="evenodd" fill="#1e0f42" fill-rule="evenodd"/></g><g transform="translate(-111.518555-117.402168)" clip-rule="evenodd"><path d="M575.5,588.5c-11.592,9.4-24.926,12.9-40,10.5-4.145-1.214-8.145-2.714-12-4.5-2.217-2.724-4.717-5.391-7.5-8-.373-3.358.461-3.692,2.5-1c.787-.742,1.453-1.575,2-2.5c3.341-.059,6.175-1.226,8.5-3.5c3.661,1.752,7.494,2.752,11.5,3c.111.617.444,1.117,1,1.5c7.864.972,15.53.139,23-2.5-.333-.667-.667-1.333-1-2c1.216-.596,2.549-.763,4-.5c1.296-2.862,3.129-5.362,5.5-7.5c2.435-5.048,4.269-10.381,5.5-16c6.77-1.563,9.77,1.104,9,8-.312,4.279-1.478,8.279-3.5,12-2.831,2.214-5.498,4.547-8,7-.495,1.973-.662,3.973-.5,6Z" clip-rule="evenodd" fill="#21084b" fill-rule="evenodd"/></g><g transform="translate(-111.518555-117.402168)" clip-rule="evenodd"><path d="M480.5,545.5c6.895,4.946,14.561,7.946,23,9c.207,9.249-3.127,16.916-10,23-11.968,6.986-23.635,6.486-35-1.5-2.379-2.599-4.379-5.433-6-8.5c3.412,2.377,6.412,5.21,9,8.5c3.848.987,5.848-.513,6-4.5c6.667,0,13.333,0,20,0c0-1.333,0-2.667,0-4c3.398.32,6.732-.013,10-1-1.333-2-2.667-4-4-6c2.411-1.819,2.578-3.819.5-6-.333.333-.667.667-1,1-2.447-2.113-5.28-3.447-8.5-4-1.481-2.019-2.814-4.019-4-6Z" clip-rule="evenodd" fill="#f9f9ee" fill-rule="evenodd"/></g><g transform="translate(-111.518555-117.402169)" clip-rule="evenodd"><path d="M451.5,567.5c-1.5-1.088-2.833-2.421-4-4c.31-7.662-3.023-10.162-10-7.5-.5.5-1,1-1.5,1.5-.167,2-.333,4-.5,6c.119,4.559,1.119,8.893,3,13-4.226-5.202-5.726-11.202-4.5-18c2.913-5.189,7.08-6.356,12.5-3.5c1.962,4.054,3.629,8.221,5,12.5Z" opacity="0.565" clip-rule="evenodd" fill="#191432" fill-rule="evenodd"/></g><g transform="translate(-111.518555-117.402168)" clip-rule="evenodd"><path d="M470.5,516.5c-.165,3.682.001,7.348.5,11c1.677,2.025,2.677,4.359,3,7c1.697,2.132,3.864,3.465,6.5,4c0,1.333,0,2.667,0,4c3.173-.099,6.173.568,9,2-.876.751-1.876,1.251-3,1.5c4.989,4.724,10.989,7.224,18,7.5.65,7.319-.35,14.319-3,21-3.053.072-5.719,1.072-8,3c6.873-6.084,10.207-13.751,10-23-8.439-1.054-16.105-4.054-23-9-2.362-2.692-4.696-5.359-7-8-1.154-2.979-2.32-5.979-3.5-9-.812-4.189-.645-8.189.5-12Z" clip-rule="evenodd" fill="#201240" fill-rule="evenodd"/></g><g transform="translate(-111.518555-117.402169)" clip-rule="evenodd"><path d="M421.5,518.5c-3.181,1.912-6.515,3.745-10,5.5c1.973.495,3.973.662,6,.5-2.814.665-5.814.998-9,1-4.607.184-8.94-.483-13-2c6.371.438,12.371-.562,18-3c2.721-.463,5.388-1.129,8-2Z" clip-rule="evenodd" fill="#e7c196" fill-rule="evenodd"/></g><g transform="translate(-111.518555-117.402169)" clip-rule="evenodd"><path d="M594.5,513.5c2.762,2.096,5.762,3.762,9,5c0,.667.333,1,1,1c4.294,2.316,8.96,3.65,14,4c.111.617.444,1.117,1,1.5-2.667.167-5.333.333-8,.5-4.277.163-8.277-.503-12-2c3.018.165,6.018-.002,9-.5-4.281-1.236-8.281-3.069-12-5.5-1.353-1.024-2.02-2.357-2-4Z" clip-rule="evenodd" fill="#efca8f" fill-rule="evenodd"/></g><g transform="translate(-111.518555-117.402169)" clip-rule="evenodd"><path d="M553.5,517.5c-.785,21.793-12.119,34.126-34,37c.202,14.523,7.202,23.857,21,28-4.006-.248-7.839-1.248-11.5-3-2.325,2.274-5.159,3.441-8.5,3.5-.547.925-1.213,1.758-2,2.5-2.039-2.692-2.873-2.358-2.5,1c2.783,2.609,5.283,5.276,7.5,8-4.273-2.934-8.273-6.267-12-10-2.752,2.763-5.752,5.097-9,7-10.643,5.673-21.976,7.506-34,5.5-1.703-2.568-3.869-3.068-6.5-1.5-2.047-1.109-4.213-1.776-6.5-2-8-3.333-13.667-9-17-17-1.881-4.107-2.881-8.441-3-13c.167-2,.333-4,.5-6c.5-.5,1-1,1.5-1.5c6.977-2.662,10.31-.162,10,7.5c1.167,1.579,2.5,2.912,4,4c.333,0,.667,0,1,0c1.621,3.067,3.621,5.901,6,8.5c11.365,7.986,23.032,8.486,35,1.5c2.281-1.928,4.947-2.928,8-3c2.65-6.681,3.65-13.681,3-21-7.011-.276-13.011-2.776-18-7.5c1.124-.249,2.124-.749,3-1.5-2.827-1.432-5.827-2.099-9-2c0-1.333,0-2.667,0-4-2.636-.535-4.803-1.868-6.5-4-.323-2.641-1.323-4.975-3-7-.499-3.652-.665-7.318-.5-11c5.808-10.614,14.808-16.78,27-18.5c8.667-.667,17.333-.667,26,0c13.6,1.281,23.6,7.781,30,19.5Z" clip-rule="evenodd" fill="#220c46" fill-rule="evenodd"/></g><g transform="translate(-111.518555-117.402169)" clip-rule="evenodd"><path d="M643.5,518.5c-7.647,4.443-15.98,6.109-25,5-5.04-.35-9.706-1.684-14-4c5.998,1.941,12.165,2.941,18.5,3c6.964-.825,13.797-2.159,20.5-4Z" opacity="0.576" clip-rule="evenodd" fill="#231332" fill-rule="evenodd"/></g><g transform="translate(-111.518555-117.402169)" clip-rule="evenodd"><path d="M488.5,517.5c9.026,1.309,18.026.809,27-1.5c3.51-3.048,3.843-6.381,1-10-4.872-1.388-9.872-1.888-15-1.5c13.598-4.019,25.932-1.519,37,7.5-2.899,7.9-8.232,13.567-16,17-14.353,4.986-25.686,1.153-34-11.5Z" clip-rule="evenodd" fill="#371e58" fill-rule="evenodd"/></g><g transform="translate(-111.518555-117.402169)" clip-rule="evenodd"><path d="M673.5,510.5c12.264-1.382,23.597,1.118,34,7.5c11.414,13.198,10.414,25.531-3,37-13.59,9.215-28.59,12.548-45,10-11.221-1.89-19.721-7.724-25.5-17.5-1.068-5.268-.401-10.268,2-15c10.967-10.062,23.467-17.396,37.5-22Z" clip-rule="evenodd" fill="#fdb29e" fill-rule="evenodd"/></g><g transform="translate(-111.518555-117.402168)" clip-rule="evenodd"><path d="M331.5,510.5c21.946-.63,40.446,7.037,55.5,23c3.265,5.972,3.265,11.972,0,18-6.643,7.969-15.143,12.469-25.5,13.5-20.139,3.289-36.972-2.545-50.5-17.5-7.708-12.614-5.541-23.114,6.5-31.5c4.546-2.455,9.212-4.288,14-5.5Z" clip-rule="evenodd" fill="#fdb29f" fill-rule="evenodd"/></g><g transform="translate(-111.518555-117.402169)" clip-rule="evenodd"><path d="M582.5,494.5c1.101,1.348,2.101,2.848,3,4.5c2.386.284,3.052,1.284,2,3c1.887,3.854,4.554,7.021,8,9.5c2.667,2.333,5.333,4.667,8,7-3.238-1.238-6.238-2.904-9-5-3.697-4.691-7.364-9.358-11-14-.538-1.617-.871-3.284-1-5Z" opacity="0.565" clip-rule="evenodd" fill="#251727" fill-rule="evenodd"/></g><g transform="translate(-111.518555-117.402169)" clip-rule="evenodd"><path d="M501.5,504.5c5.128-.388,10.128.112,15,1.5c2.843,3.619,2.51,6.952-1,10-8.974,2.309-17.974,2.809-27,1.5-2.311-7.194.356-11.36,8-12.5c1.634-.494,3.301-.66,5-.5Z" clip-rule="evenodd" fill="#f8f4f7" fill-rule="evenodd"/></g><g transform="translate(-111.518555-117.402169)" clip-rule="evenodd"><path d="M553.5,517.5c-6.4-11.719-16.4-18.219-30-19.5-8.667-.667-17.333-.667-26,0-12.192,1.72-21.192,7.886-27,18.5-1.145,3.811-1.312,7.811-.5,12c1.18,3.021,2.346,6.021,3.5,9-.996.086-1.829-.248-2.5-1-3.411-9.416-3.244-18.75.5-28c1,0,2,0,3,0-1.261-3.874-1.928-7.874-2-12c1.699-.16,3.366.006,5,.5-.951.718-1.117,1.551-.5,2.5c1.518-.443,2.685.224,3.5,2c2.48-.915,3.147-2.415,2-4.5c2.068-.687,4.068-.52,6,.5.808-.308,1.475-.808,2-1.5-1.259-.923-2.592-1.757-4-2.5c4.304-1.301,8.637-2.468,13-3.5c13.769-1.295,27.436-.295,41,3c2,1.333,4,2.667,6,4-1.746.471-3.413,1.138-5,2c1.5,2.833,3.667,5,6.5,6.5.333,1,.667,2,1,3c2.129-1.363,2.629-1.029,1.5,1c1.787,2.358,2.787,5.025,3,8Z" clip-rule="evenodd" fill="#f7f4f7" fill-rule="evenodd"/></g><g transform="translate(-111.518555-117.402169)" clip-rule="evenodd"><path d="M580.5,471.5c-.046,6.691.288,13.357,1,20-.768-.763-1.268-1.763-1.5-3-.499-4.321-.666-8.654-.5-13-.268-1.599.066-2.932,1-4Z" opacity="0.571" clip-rule="evenodd" fill="#1f1123" fill-rule="evenodd"/></g><g transform="translate(-111.518555-117.402169)" clip-rule="evenodd"><path d="M360.5,460.5c-.525,4.033-1.858,7.7-4,11c.167-4.173,1.5-7.84,4-11Z" opacity="0.565" clip-rule="evenodd" fill="#3a1e2a" fill-rule="evenodd"/></g><g transform="translate(-111.518555-117.402169)" clip-rule="evenodd"><path d="M535.5,385.5c3.018-.165,6.018.002,9,.5c2.488,2.627,2.655,5.46.5,8.5-4.76,5.728-10.093,6.395-16,2-.667-1.667-.667-3.333,0-5c2.063-2.234,4.229-4.234,6.5-6Z" clip-rule="evenodd" fill="#e18e70" fill-rule="evenodd"/></g><g transform="translate(-111.518555-117.402169)" clip-rule="evenodd"><path d="M478.5,385.5c5.869-.434,10.702,1.566,14.5,6c.682,3.68-.818,6.18-4.5,7.5-6.727,1.492-11.06-1.008-13-7.5.484-2.301,1.484-4.301,3-6Z" clip-rule="evenodd" fill="#dd8b6f" fill-rule="evenodd"/></g><g transform="translate(-111.518555-117.402169)" clip-rule="evenodd"><path d="M247.5,355.5c2.521,10.11,4.521,20.443,6,31-3.395-9.939-5.395-20.273-6-31Z" opacity="0.584" clip-rule="evenodd" fill="#110e27" fill-rule="evenodd"/></g><g transform="translate(-111.518555-117.402169)" clip-rule="evenodd"><path d="M776.5,349.5c-.966,11.626-2.466,23.292-4.5,35-.671.752-1.504,1.086-2.5,1c2.35-12.121,4.683-24.121,7-36Z" clip-rule="evenodd" fill="#e0dcdd" fill-rule="evenodd"/></g><g transform="translate(-111.518555-117.402167)" clip-rule="evenodd"><path d="M477.5,366.5c5.791-1.011,10.624.656,14.5,5c.887,5.619-1.613,8.285-7.5,8-9.192-1.111-11.525-5.444-7-13Z" transform="translate(0 0.000001)" clip-rule="evenodd" fill="#e58f68" fill-rule="evenodd"/></g><g transform="translate(-111.518555-117.402169)" clip-rule="evenodd"><path d="M538.5,365.5c6.88-.624,9.714,2.376,8.5,9-4.596,5.285-9.929,6.285-16,3-.667-2-.667-4,0-6c2.114-2.621,4.614-4.621,7.5-6Z" clip-rule="evenodd" fill="#e68c66" fill-rule="evenodd"/></g><g transform="translate(-111.518555-117.402169)" clip-rule="evenodd"><path d="M644.5,329.5c2.632,1.613,5.298,3.28,8,5c1.172-.419,2.172-1.085,3-2-1.006-.896-1.006-1.562,0-2c1.122,1.13,2.456,1.797,4,2c20.742,16.741,39.076,35.741,55,57-3.544-3.27-7.544-5.77-12-7.5.667-.333,1.333-.667,2-1-.667-4.667-3.333-7.333-8-8-1.524-3.291-2.857-3.125-4,.5-.333-.167-.667-.333-1-.5-4.891-5.098-9.225-10.598-13-16.5-1.226.863-2.56.863-4,0-10.009-9.002-20.009-18.002-30-27Z" clip-rule="evenodd" fill="#dd8d7b" fill-rule="evenodd"/></g><g transform="translate(-111.518555-117.402169)" clip-rule="evenodd"><path d="M280.5,327.5c3.04,17.441,7.873,34.441,14.5,51c.167-1.5.333-3,.5-4.5-1.46-10.786-2.127-21.619-2-32.5-.295-2.235.039-4.235,1-6-.166,6.675,0,13.342.5,20c.817,4.979,3.151,8.979,7,12c1.308-.651,2.141.015,2.5,2-8.31,9.944-16.143,20.278-23.5,31-3.442-9.77-5.942-19.77-7.5-30c2.229-10.177,3.563-20.51,4-31c.219-4.3,1.219-8.3,3-12Z" clip-rule="evenodd" fill="#d6b6d1" fill-rule="evenodd"/></g><g transform="translate(-111.518555-117.402169)" clip-rule="evenodd"><path d="M277.5,339.5c-.437,10.49-1.771,20.823-4,31-1-4.667-2-9.333-3-14c0-1.667,0-3.333,0-5c.722.418,1.222,1.084,1.5,2c.333,3,.667,6,1,9c1.22-8.004,2.72-15.671,4.5-23Z" clip-rule="evenodd" fill="#d29ba9" fill-rule="evenodd"/></g><g transform="translate(-111.518555-117.402169)" clip-rule="evenodd"><path d="M742.5,323.5c.442,7.744,1.775,15.41,4,23c.742,5.618,1.242,11.285,1.5,17c.122,1.937.955,3.27,2.5,4-.65,1.935-.983,3.935-1,6-2.331,8.629-4.998,17.295-8,26-5.343-7.363-10.676-14.696-16-22c.342-7.235,1.342-14.235,3-21-.166,5.344.001,10.677.5,16c6.966-15.666,11.466-32,13.5-49Z" clip-rule="evenodd" fill="#d7bbd2" fill-rule="evenodd"/></g><g transform="translate(-111.518555-117.402169)" clip-rule="evenodd"><path d="M740.5,311.5c.333,0,.667,0,1,0c.005,4.034.338,8.034,1,12-2.034,17-6.534,33.334-13.5,49-.499-5.323-.666-10.656-.5-16c.945-4.905,1.279-9.905,1-15c3.99-1.16,6.49-3.826,7.5-8c2.921-7.05,4.088-14.383,3.5-22Z" clip-rule="evenodd" fill="#f6e3d3" fill-rule="evenodd"/></g><g transform="translate(-111.518555-117.402169)" clip-rule="evenodd"><path d="M281.5,321.5c1.968,5.425,3.468,11.092,4.5,17c2.427,1.281,4.927,2.281,7.5,3-.127,10.881.54,21.714,2,32.5-.167,1.5-.333,3-.5,4.5-6.627-16.559-11.46-33.559-14.5-51c.017-2.065.35-4.065,1-6Z" clip-rule="evenodd" fill="#faebd6" fill-rule="evenodd"/></g><g transform="translate(-111.518555-117.40217)" clip-rule="evenodd"><path d="M249.5,271.5c-.333,5.333-.667,10.667-1,16-.988,5.14-1.321,10.474-1,16-1.141,17.172-1.141,34.506,0,52-3.824-23.818-3.991-47.818-.5-72c.189-4.267,1.023-8.267,2.5-12Z" opacity="0.565" clip-rule="evenodd" fill="#14122a" fill-rule="evenodd"/></g><g transform="translate(-111.518555-117.40217)" clip-rule="evenodd"><path d="M352.5,312.5c1.406.473,2.073,1.473,2,3c0,1.333,0,2.667,0,4-2,.667-4,1.333-6,2c0,1,0,2,0,3-1,0-2,0-3,0c0,1,0,2,0,3-1.7.126-3.2.793-4.5,2-1.921-.69-3.755-1.024-5.5-1c1.732-4.121,2.898-8.454,3.5-13c.541-6.317,1.041-12.484,1.5-18.5.333-.5.667-1,1-1.5.333.833.667,1.667,1,2.5-1.17,2.068-1.004,3.901.5,5.5.333-.667.667-1.333,1-2c2.853,3.735,5.687,7.402,8.5,11Z" clip-rule="evenodd" fill="#cf8f9e" fill-rule="evenodd"/></g><g transform="translate(-111.518555-117.402169)" clip-rule="evenodd"><path d="M729.5,341.5c.279,5.095-.055,10.095-1,15-1.658,6.765-2.658,13.765-3,21-3.68-3.683-7.014-7.683-10-12c.31-1.238.81-1.238,1.5,0c2.032-5.568,2.865-11.401,2.5-17.5.14-10.079-1.027-19.912-3.5-29.5-.5-11.662-.667-23.329-.5-35-1,0-2,0-3,0c.164,2.687-.003,5.354-.5,8-.322-5.352-.822-10.686-1.5-16-.209-1.494-.876-2.661-2-3.5c1.076-1.726,1.243-3.559.5-5.5-1.388,1.054-2.888,1.22-4.5.5c1.442-.377,2.442-1.21,3-2.5.111-.617.444-1.117,1-1.5c4.928-1.643,8.428-.143,10.5,4.5c7.672,24.026,11.172,48.693,10.5,74Z" clip-rule="evenodd" fill="#d4acc6" fill-rule="evenodd"/></g><g transform="translate(-111.518555-117.402169)" clip-rule="evenodd"><path d="M749.5,267.5c3.996,15.268,5.663,30.934,5,47c.134,17.791-1.199,35.458-4,53-1.545-.73-2.378-2.063-2.5-4-.258-5.715-.758-11.382-1.5-17c.617.111,1.117.444,1.5,1c.059,4.848.726,9.515,2,14c.641-6.028.474-12.028-.5-18c1,0,2,0,3,0c.167-19.336,0-38.67-.5-58-.278-.916-.778-1.582-1.5-2-.333-5.333-.667-10.667-1-16Z" clip-rule="evenodd" fill="#d78c83" fill-rule="evenodd"/></g><g transform="translate(-111.518555-117.402169)" clip-rule="evenodd"><path d="M278.5,295.5c1,5.333,2,10.667,3,16c0,3.333,0,6.667,0,10-.65,1.935-.983,3.935-1,6-1.781,3.7-2.781,7.7-3,12-1.78,7.329-3.28,14.996-4.5,23-.333-3-.667-6-1-9-.278-.916-.778-1.582-1.5-2c0-1.667,0-3.333,0-5-1.021-15.674-1.021-31.341,0-47c2.86-.518,4.86-2.184,6-5c.683.363,1.35.696,2,1Z" clip-rule="evenodd" fill="#df8774" fill-rule="evenodd"/></g><g transform="translate(-111.518555-117.402169)" clip-rule="evenodd"><path d="M750.5,283.5c.722.418,1.222,1.084,1.5,2c.5,19.33.667,38.664.5,58-1,0-2,0-3,0c.974,5.972,1.141,11.972.5,18-1.274-4.485-1.941-9.152-2-14-.383-.556-.883-.889-1.5-1-2.225-7.59-3.558-15.256-4-23-.662-3.966-.995-7.966-1-12c0-1.333,0-2.667,0-4c1.427-1.648,2.26-3.648,2.5-6c.498-3.317.665-6.65.5-10c2,0,4,0,6,0c0-2.667,0-5.333,0-8Z" clip-rule="evenodd" fill="#e28974" fill-rule="evenodd"/></g><g transform="translate(-111.518555-117.40217)" clip-rule="evenodd"><path d="M272.5,271.5c-1.32,9.274-1.987,18.608-2,28-1.021,15.659-1.021,31.326,0,47-3.18-18.076-3.847-36.409-2-55c.947-6.733,2.28-13.4,4-20Z" clip-rule="evenodd" fill="#c57f81" fill-rule="evenodd"/></g><g transform="translate(-111.518555-117.402169)" clip-rule="evenodd"><path d="M686.5,334.5c1.935.65,3.935.983,6,1c0,1,0,2,0,3c1,0,2,0,3,0-1.074-5.02-1.074-10.02,0-15-1.333,0-2.667,0-4,0c.695-7.026-.472-13.693-3.5-20-.218-7.203-.718-14.37-1.5-21.5.929-1.077,1.596-2.244,2-3.5c2.128-1.457,4.462-2.457,7-3c.149,1.052-.017,2.052-.5,3-.667,1.333-1.333,1.333-2,0-.638,1.109-1.138,2.275-1.5,3.5c1.385,1.597,2.051,3.43,2,5.5c1,0,2,0,3,0c2.02,4.579,3.354,9.412,4,14.5-.886,2.808-1.053,5.641-.5,8.5c1.011.837,2.178,1.17,3.5,1-1.355,5.417-.688,10.584,2,15.5-.944,2.719-1.277,5.552-1,8.5c1,0,2,0,3,0-.692,5.283-.692,10.617,0,16-1.373.157-2.707-.01-4-.5-5.596-5.765-11.262-11.265-17-16.5Z" clip-rule="evenodd" fill="#d097ad" fill-rule="evenodd"/></g><g transform="translate(-111.518555-117.402169)" clip-rule="evenodd"><path d="M749.5,263.5c.651.591,1.318,1.257,2,2c5.719,29.741,6.553,59.741,2.5,90-.78,6.294-2.28,12.294-4.5,18c.017-2.065.35-4.065,1-6c2.801-17.542,4.134-35.209,4-53c.663-16.066-1.004-31.732-5-47c0-1.333,0-2.667,0-4Z" opacity="0.583" clip-rule="evenodd" fill="#320d35" fill-rule="evenodd"/></g><g transform="translate(-111.518555-117.40217)" clip-rule="evenodd"><path d="M688.5,278.5c-.404,1.256-1.071,2.423-2,3.5.782,7.13,1.282,14.297,1.5,21.5c3.028,6.307,4.195,12.974,3.5,20c1.333,0,2.667,0,4,0-1.074,4.98-1.074,9.98,0,15-1,0-2,0-3,0c0-1,0-2,0-3-2.065-.017-4.065-.35-6-1-1.746-1.752-3.746-3.085-6-4-5.436-3.59-10.77-7.423-16-11.5c4.624-6.748,9.124-13.581,13.5-20.5.667-2.333.667-4.667,0-7-1.356-.88-2.856-1.214-4.5-1c.787-1.604,2.12-2.271,4-2-.268-1.599.066-2.932,1-4c3.306-1.989,6.639-3.989,10-6Z" clip-rule="evenodd" fill="#ce8ea1" fill-rule="evenodd"/></g><g transform="translate(-111.518555-117.402169)" clip-rule="evenodd"><path d="M596.5,310.5c-60.447-23.846-120.28-22.513-179.5,4-.5-.167-1-.333-1.5-.5c2-1.667,4-3.333,6-5-3.204-3.036-6.204-6.203-9-9.5c3.374,1.858,6.374,4.358,9,7.5c1.229.781,2.562,1.281,4,1.5c20.933-7.998,42.599-13.165,65-15.5c15.667-.667,31.333-.667,47,0c16.333,2.93,32.666,6.43,49,10.5.477.978,1.143,1.811,2,2.5c3.95-.443,6.617,1.057,8,4.5Z" clip-rule="evenodd" fill="#fefae4" fill-rule="evenodd"/></g><g transform="translate(-111.518555-117.402169)" clip-rule="evenodd"><path d="M691.5,263.5c-4.73,6.735-9.063,13.735-13,21-.934,1.068-1.268,2.401-1,4-1.88-.271-3.213.396-4,2-8.47,10.648-16.803,21.481-25,32.5c4.112,2.712,7.778,5.878,11,9.5-1.544-.203-2.878-.87-4-2-1.006.438-1.006,1.104,0,2-.828.915-1.828,1.581-3,2-2.702-1.72-5.368-3.387-8-5-5.611-3.478-11.277-6.978-17-10.5-1.035-1.507-.868-3.007.5-4.5c19.241-19.239,39.741-37.072,61.5-53.5c1.561-.188,2.228.645,2,2.5Z" clip-rule="evenodd" fill="#dc8476" fill-rule="evenodd"/></g><g transform="translate(-111.518555-117.40217)" clip-rule="evenodd"><path d="M707.5,264.5c-.558,1.29-1.558,2.123-3,2.5c1.612.72,3.112.554,4.5-.5.743,1.941.576,3.774-.5,5.5c1.124.839,1.791,2.006,2,3.5.678,5.314,1.178,10.648,1.5,16c.497-2.646.664-5.313.5-8c1,0,2,0,3,0-.167,11.671,0,23.338.5,35c2.473,9.588,3.64,19.421,3.5,29.5.365,6.099-.468,11.932-2.5,17.5-.69-1.238-1.19-1.238-1.5,0-11.333-12-23-23.667-35-35c2.254.915,4.254,2.248,6,4c5.738,5.235,11.404,10.735,17,16.5c1.293.49,2.627.657,4,.5-.692-5.383-.692-10.717,0-16-1,0-2,0-3,0-.277-2.948.056-5.781,1-8.5-2.688-4.916-3.355-10.083-2-15.5-1.322.17-2.489-.163-3.5-1-.553-2.859-.386-5.692.5-8.5-.646-5.088-1.98-9.921-4-14.5-1,0-2,0-3,0c.051-2.07-.615-3.903-2-5.5.362-1.225.862-2.391,1.5-3.5.667,1.333,1.333,1.333,2,0c.483-.948.649-1.948.5-3-2.538.543-4.872,1.543-7,3c5.435-5.884,11.769-10.551,19-14Z" clip-rule="evenodd" fill="#d2a3bb" fill-rule="evenodd"/></g><g transform="translate(-111.518555-117.402169)" clip-rule="evenodd"><path d="M278.5,250.5c.822,16.175,1.655,32.508,2.5,49c2.278-8.049,4.445-16.049,6.5-24-.943,12.323-2.943,24.323-6,36-1-5.333-2-10.667-3-16c0-15,0-30,0-45Z" clip-rule="evenodd" fill="#fac083" fill-rule="evenodd"/></g><g transform="translate(-111.518555-117.402169)" clip-rule="evenodd"><path d="M280.5,241.5c-.256,3.098-.922,6.098-2,9c0,15,0,30,0,45-.65-.304-1.317-.637-2-1-1.14,2.816-3.14,4.482-6,5c.013-9.392.68-18.726,2-28c.744-6.808,2.078-13.475,4-20c1.135-3.402,2.468-6.735,4-10Z" clip-rule="evenodd" fill="#e18c6d" fill-rule="evenodd"/></g><g transform="translate(-111.518555-117.402169)" clip-rule="evenodd"><path d="M327.5,272.5c5.338,4.5,10.838,8.833,16.5,13c.399-.228.565-.562.5-1c.79,1.109,1.29,2.442,1.5,4c1.302.585,2.469,1.251,3.5,2-3.599-.562-5.599.938-6,4.5c2.614,6.062,5.614,11.895,9,17.5-2.813-3.598-5.647-7.265-8.5-11-.333.667-.667,1.333-1,2-1.504-1.599-1.67-3.432-.5-5.5-.333-.833-.667-1.667-1-2.5-.333.5-.667,1-1,1.5-.459,6.016-.959,12.183-1.5,18.5-.602,4.546-1.768,8.879-3.5,13c1.745-.024,3.579.31,5.5,1c1.3-1.207,2.8-1.874,4.5-2c0-1,0-2,0-3c1,0,2,0,3,0c0-1,0-2,0-3c2-.667,4-1.333,6-2c0-1.333,0-2.667,0-4c.864,1.188,1.864,2.355,3,3.5-13.799,11.299-27.132,23.132-40,35.5-1.322.17-2.489-.163-3.5-1-.308.808-.808,1.475-1.5,2-.255-2.709-.588-5.376-1-8c1.931-3.453,3.431-7.119,4.5-11c3.224-17.131,4.557-34.464,4-52c1.371-3.573,2.871-7.073,4.5-10.5-.333-.333-.667-.667-1-1c1.293-.49,2.627-.657,4-.5Z" clip-rule="evenodd" fill="#cb96ac" fill-rule="evenodd"/></g><g transform="translate(-111.518555-117.40217)" clip-rule="evenodd"><path d="M262.5,223.5c-5.872,14.156-9.872,28.822-12,44-.934,1.068-1.268,2.401-1,4-1.477,3.733-2.311,7.733-2.5,12-3.491,24.182-3.324,48.182.5,72c.605,10.727,2.605,21.061,6,31c.017,2.065.35,4.065,1,6-2.351-2.341-3.351-5.341-3-9-1,0-2,0-3,0c.165-3.35-.002-6.683-.5-10-.667,1.333-1.333,1.333-2,0-1.164-8.282-1.831-16.616-2-25-.314-2.369-1.148-4.536-2.5-6.5c1.128-1.468,1.794-3.135,2-5-4.408-7.714-5.075-15.714-2-24-1.047-1.68-1.713-3.514-2-5.5.565-5.23,1.398-5.23,2.5,0c.212-3.258.712-6.424,1.5-9.5-.727-1.399-1.227-2.899-1.5-4.5-.308.808-.808,1.475-1.5,2-.966-1.896-1.299-3.896-1-6c1.322.17,2.489-.163,3.5-1c3.23-10.086,5.73-20.253,7.5-30.5-.924-1.811-1.757-1.645-2.5.5-.735-3.185-.235-6.185,1.5-9-1.789-3.151-2.289-6.484-1.5-10c1.163,1.785,1.83,3.785,2,6c3.557-2.782,5.224-6.449,5-11c.667,1.333,1.333,1.333,2,0c.917-4.336,2.751-8.003,5.5-11Z" clip-rule="evenodd" fill="#f8f7ed" fill-rule="evenodd"/></g><g transform="translate(-111.518555-117.402169)" clip-rule="evenodd"><path d="M327.5,272.5c-1.373-.157-2.707.01-4,.5.333.333.667.667,1,1-1.629,3.427-3.129,6.927-4.5,10.5.557,17.536-.776,34.869-4,52-1.069,3.881-2.569,7.547-4.5,11c.412,2.624.745,5.291,1,8c.692-.525,1.192-1.192,1.5-2c1.011.837,2.178,1.17,3.5,1-3.989,5.321-8.322,10.321-13,15-.359-1.985-1.192-2.651-2.5-2-3.849-3.021-6.183-7.021-7-12-.5-6.658-.666-13.325-.5-20-.734-19.606,1.099-38.939,5.5-58c1.322-5.477,3.822-10.311,7.5-14.5c2-.667,4-.667,6,0c4.906,2.942,9.572,6.109,14,9.5Z" clip-rule="evenodd" fill="#d0a4bd" fill-rule="evenodd"/></g><g transform="translate(-111.518555-117.402169)" clip-rule="evenodd"><path d="M743.5,244.5c2.156,6.291,4.156,12.625,6,19c0,1.333,0,2.667,0,4c.333,5.333.667,10.667,1,16c0,2.667,0,5.333,0,8-2,0-4,0-6,0c.165,3.35-.002,6.683-.5,10-.24,2.352-1.073,4.352-2.5,6c1.76-21.035,2.427-42.035,2-63Z" clip-rule="evenodd" fill="#e1906f" fill-rule="evenodd"/></g><g transform="translate(-111.518555-117.402169)" clip-rule="evenodd"><path d="M356.5,214.5c27.119,16.601,51.119,37.101,72,61.5c4.749-.359,9.415-1.359,14-3c1.991-.374,3.658-1.207,5-2.5c9.058-1.897,18.058-3.897,27-6c16.283-1.644,32.617-2.311,49-2c1.333,0,2.667,0,4,0c9.189,1.396,18.523,2.729,28,4c9.791,1.444,19.124,4.111,28,8-6.488-1.398-12.988-2.731-19.5-4-3.241.757-6.741,1.091-10.5,1-1.295-.598-2.628-1.098-4-1.5c2.077-.192,4.077-.692,6-1.5-3.855-1.503-7.855-2.17-12-2c0,1.667,0,3.333,0,5-2.319.667-4.653.834-7,.5-1.473-.71-2.14-1.876-2-3.5c1.43-.079,2.764.254,4,1c1.187-1.324.854-2.324-1-3-1.909.848-3.909,1.182-6,1c0,2.667,0,5.333,0,8c5.333,0,10.667,0,16,0c0,1.333,0,2.667,0,4c2.42-.208,4.753.126,7,1c1.393,2.174,1.06,4.007-1,5.5.667.333,1.333.667,2,1c2.96-.32,5.96-.32,9,0c2.332,2.168,4.999,3.835,8,5c5.49.513,10.656,2.013,15.5,4.5c1.31.63,2.144,1.63,2.5,3-33.081-13.543-67.414-18.21-103-14-9.719.194-19.053,1.86-28,5-11.854,2.465-23.187,6.465-34,12-18.579-19.082-37.912-37.249-58-54.5-17.076-13.37-35.743-23.87-56-31.5-.111-.617-.444-1.117-1-1.5-3.382-.176-6.715-.676-10-1.5-.654-1.615-1.154-3.282-1.5-5-1.011-.837-2.178-1.17-3.5-1c0-2.667,0-5.333,0-8c2.357.163,4.69-.003,7-.5c1.333-.667,1.333-1.333,0-2c4.333-.667,8.667-.667,13,0c11.768,2.887,22.435,7.887,32,15c3.021.849,6.021,1.683,9,2.5Z" clip-rule="evenodd" fill="#260c47" fill-rule="evenodd"/></g><g transform="translate(-111.518555-117.402169)" clip-rule="evenodd"><path d="M268.5,281.5c0,3.333,0,6.667,0,10-1.847,18.591-1.18,36.924,2,55c0,1.667,0,3.333,0,5s0,3.333,0,5c0,3.667,0,7.333,0,11-3.667,0-7.333,0-11,0c.16-1.699-.006-3.366-.5-5-1-1.333-2-1.333-3,0-.36-2.108-1.027-4.108-2-6-.26,2.118-1.26,3.784-3,5-3.146-19.157-4.313-38.491-3.5-58-.321-5.526.012-10.86,1-16c.617-.111,1.117-.444,1.5-1c.199-7.495,1.366-14.828,3.5-22c1.909-.848,3.909-1.182,6-1c0,1.333,0,2.667,0,4c1.333,0,2.667,0,4,0c.588,5.457.921,10.791,1,16c1.122-1.13,2.456-1.797,4-2Z" clip-rule="evenodd" fill="#220a47" fill-rule="evenodd"/></g><g transform="translate(-111.518555-117.402169)" clip-rule="evenodd"><path d="M276.5,251.5c-1.922,6.525-3.256,13.192-4,20-1.72,6.6-3.053,13.267-4,20c0-3.333,0-6.667,0-10c2.215-8.364,3.881-16.864,5-25.5-.145-.772-.478-1.439-1-2c1.236-1.085,2.569-1.918,4-2.5Z" clip-rule="evenodd" fill="#300c34" fill-rule="evenodd"/></g><g transform="translate(-111.518555-117.402169)" clip-rule="evenodd"><path d="M743.5,241.5c4.181,6.598,6.181,13.931,6,22-1.844-6.375-3.844-12.709-6-19c0-1,0-2,0-3Z" clip-rule="evenodd" fill="#260c2d" fill-rule="evenodd"/></g><g transform="translate(-111.518555-117.40217)" clip-rule="evenodd"><path d="M714.5,246.5c3.018-.165,6.018.002,9,.5c2.635,1.961,4.469,4.461,5.5,7.5c4.727,18.804,8.56,37.804,11.5,57c.588,7.617-.579,14.95-3.5,22-1.01,4.174-3.51,6.84-7.5,8c.672-25.307-2.828-49.974-10.5-74-2.072-4.643-5.572-6.143-10.5-4.5-.556.383-.889.883-1,1.5-7.231,3.449-13.565,8.116-19,14-3.361,2.011-6.694,4.011-10,6c3.937-7.265,8.27-14.265,13-21c7.358-6.017,15.025-11.683,23-17Z" clip-rule="evenodd" fill="#fefce9" fill-rule="evenodd"/></g><g transform="translate(-111.518555-117.402169)" clip-rule="evenodd"><path d="M754.5,215.5c1.385,1.074,2.551,2.407,3.5,4c8.135,17.924,13.635,36.591,16.5,56-.617-.111-1.117-.444-1.5-1-.497-2.31-.663-4.643-.5-7-1,0-2,0-3,0-1.108-4.935-2.441-9.768-4-14.5c1.27-4.354,1.104-8.854-.5-13.5-3.285-8.224-6.785-16.224-10.5-24Z" clip-rule="evenodd" fill="#231440" fill-rule="evenodd"/></g><g transform="translate(-111.518555-117.402169)" clip-rule="evenodd"><path d="M330.5,262.5c5.177,7.023,9.843,14.356,14,22c.065.438-.101.772-.5,1-5.662-4.167-11.162-8.5-16.5-13-4.428-3.391-9.094-6.558-14-9.5-2-.667-4-.667-6,0-3.678,4.189-6.178,9.023-7.5,14.5-4.401,19.061-6.234,38.394-5.5,58-.961,1.765-1.295,3.765-1,6-2.573-.719-5.073-1.719-7.5-3-1.032-5.908-2.532-11.575-4.5-17c0-3.333,0-6.667,0-10c3.057-11.677,5.057-23.677,6-36c2.117-6.456,3.951-13.123,5.5-20c3.32-9.672,9.487-12.172,18.5-7.5c6.234,5.08,12.567,9.914,19,14.5Z" clip-rule="evenodd" fill="#fefcea" fill-rule="evenodd"/></g><g transform="translate(-111.518555-117.40217)" clip-rule="evenodd"><path d="M356.5,214.5c-2.979-.817-5.979-1.651-9-2.5-9.565-7.113-20.232-12.113-32-15-4.333-.667-8.667-.667-13,0c1.333.667,1.333,1.333,0,2-2.31.497-4.643.663-7,.5c0,2.667,0,5.333,0,8c1.322-.17,2.489.163,3.5,1c.346,1.718.846,3.385,1.5,5c3.285.824,6.618,1.324,10,1.5.556.383.889.883,1,1.5-11.01-1.988-19.343,1.679-25,11-3.068,4.144-5.068,8.811-6,14-1.532,3.265-2.865,6.598-4,10-1.431.582-2.764,1.415-4,2.5.522.561.855,1.228,1,2-1.119,8.636-2.785,17.136-5,25.5-1.544.203-2.878.87-4,2-.079-5.209-.412-10.543-1-16-1.333,0-2.667,0-4,0c0-1.333,0-2.667,0-4-2.091-.182-4.091.152-6,1-2.134,7.172-3.301,14.505-3.5,22-.383.556-.883.889-1.5,1c.333-5.333.667-10.667,1-16-.268-1.599.066-2.932,1-4c2.508-8.33,4.841-16.83,7-25.5.821-3.995,2.488-7.495,5-10.5.98-2.586,1.313-5.253,1-8c10.735-23.202,28.735-32.368,54-27.5c13.849,4.593,26.849,10.76,39,18.5Z" clip-rule="evenodd" fill="#250c44" fill-rule="evenodd"/></g><g transform="translate(-111.518555-117.402169)" clip-rule="evenodd"><path d="M262.5,223.5c.333,0,.667,0,1,0c.313,2.747-.02,5.414-1,8-2.512,3.005-4.179,6.505-5,10.5-2.159,8.67-4.492,17.17-7,25.5c2.128-15.178,6.128-29.844,12-44Z" opacity="0.584" clip-rule="evenodd" fill="#1d1535" fill-rule="evenodd"/></g><g transform="translate(-111.518555-117.402169)" clip-rule="evenodd"><path d="M735.5,226.5c3.042,4.784,5.708,9.784,8,15c0,1,0,2,0,3c.427,20.965-.24,41.965-2,63c0,1.333,0,2.667,0,4-.333,0-.667,0-1,0-2.94-19.196-6.773-38.196-11.5-57-1.031-3.039-2.865-5.539-5.5-7.5-2.982-.498-5.982-.665-9-.5c2.714-1.458,5.714-2.458,9-3c1.77-1.32,2.103-2.82,1-4.5-2.333-.667-4.667-.667-7,0-3.384,2.94-7.051,3.273-11,1c.667-.333,1.333-.667,2-1-2.175-3.045-5.175-4.211-9-3.5-1.333,2.667-2.667,5.333-4,8-1.333,0-2.667,0-4,0c0,1.333,0,2.667,0,4-2.166-.079-4.166-.746-6-2-1.147.318-1.981.984-2.5,2-2.085-2.644-4.585-3.311-7.5-2c11.115-8.894,23.449-15.728,37-20.5c7.916-2.378,15.583-1.878,23,1.5Z" clip-rule="evenodd" fill="#fccd82" fill-rule="evenodd"/></g><g transform="translate(-111.518555-117.40217)" clip-rule="evenodd"><path d="M311.5,216.5c20.257,7.63,38.924,18.13,56,31.5c20.088,17.251,39.421,35.418,58,54.5c10.813-5.535,22.146-9.535,34-12c3.35.165,6.683-.002,10-.5c5.984-1.826,11.984-3.326,18-4.5c35.586-4.21,69.919.457,103,14c2.446,1.733,5.113,2.567,8,2.5c18.307-20.813,38.307-39.646,60-56.5c15.958-11.816,33.291-21.316,52-28.5c10.633-2.333,18.966.834,25,9.5-7.417-3.378-15.084-3.878-23-1.5-13.551,4.772-25.885,11.606-37,20.5-4.703,3.343-9.703,6.343-15,9-20.573,15.756-39.573,33.09-57,52-.487.946-.82,1.946-1,3c1.045,1.705,2.378,3.205,4,4.5-3.802.053-7.135-1.114-10-3.5-1.383-3.443-4.05-4.943-8-4.5-.857-.689-1.523-1.522-2-2.5-16.334-4.07-32.667-7.57-49-10.5-15.667-.667-31.333-.667-47,0-22.401,2.335-44.067,7.502-65,15.5-1.438-.219-2.771-.719-4-1.5-2.626-3.142-5.626-5.642-9-7.5-8.766-7.262-17.099-15.096-25-23.5-17.637-15.987-36.637-29.987-57-42-5.333-2.667-10.667-5.333-16-8-7.866-2.258-15.866-2.924-24-2-1.205,1.376-2.538,2.542-4,3.5c5.657-9.321,13.99-12.988,25-11Z" clip-rule="evenodd" fill="#fbf8f8" fill-rule="evenodd"/></g><g transform="translate(-111.518555-117.40217)" clip-rule="evenodd"><path d="M487.5,285.5c-6.016,1.174-12.016,2.674-18,4.5-3.317.498-6.65.665-10,.5c8.947-3.14,18.281-4.806,28-5Z" clip-rule="evenodd" fill="#d7cae3" fill-rule="evenodd"/></g><g transform="translate(-111.518555-117.402169)" clip-rule="evenodd"><path d="M658.5,245.5c-21.693,16.854-41.693,35.687-60,56.5-2.887.067-5.554-.767-8-2.5-.356-1.37-1.19-2.37-2.5-3-4.844-2.487-10.01-3.987-15.5-4.5-3.001-1.165-5.668-2.832-8-5-3.04-.32-6.04-.32-9,0-.667-.333-1.333-.667-2-1c2.06-1.493,2.393-3.326,1-5.5-2.247-.874-4.58-1.208-7-1c0-1.333,0-2.667,0-4-5.333,0-10.667,0-16,0c0-2.667,0-5.333,0-8c2.091.182,4.091-.152,6-1c1.854.676,2.187,1.676,1,3-1.236-.746-2.57-1.079-4-1-.14,1.624.527,2.79,2,3.5c2.347.334,4.681.167,7-.5c0-1.667,0-3.333,0-5c4.145-.17,8.145.497,12,2-1.923.808-3.923,1.308-6,1.5c1.372.402,2.705.902,4,1.5c3.759.091,7.259-.243,10.5-1c6.512,1.269,13.012,2.602,19.5,4c3.44.591,6.773,1.591,10,3c7.354-8.021,15.021-15.688,23-23c3.063-1.551,5.729-3.718,8-6.5c1.5-.5,3-1,4.5-1.5c1.995,1.73,4.162,3.063,6.5,4c.28-3.725,2.28-4.892,6-3.5-1.333.333-2.667.667-4,1c2.079.808,4.079.641,6-.5-1.282-2.122-.782-3.789,1.5-5c1.986,2.315,4.486,3.648,7.5,4c1.333-2.333,1.333-4.667,0-7c3.586-1.293,7.252-2.293,11-3c.262,1.478-.071,2.811-1,4-1.536,1.436-3.203,2.269-5,2.5.752.671,1.086,1.504,1,2.5Z" clip-rule="evenodd" fill="#250a49" fill-rule="evenodd"/></g><g transform="translate(-111.518555-117.402169)" clip-rule="evenodd"><path d="M623.5,246.5c-2.333,2.667-4.667,5.333-7,8-7.979,7.312-15.646,14.979-23,23-3.227-1.409-6.56-2.409-10-3-8.876-3.889-18.209-6.556-28-8c.111-.617.444-1.117,1-1.5-9.562-1.952-19.229-2.785-29-2.5-1.333,0-2.667,0-4,0-8.001-.813-16.168-1.48-24.5-2-7.468,1.115-14.968,1.948-22.5,2.5-.916.278-1.582.778-2,1.5-8.942,2.103-17.942,4.103-27,6c2.57-2.779,5.904-4.279,10-4.5.667-1,1.333-2,2-3c5.323-.499,10.656-.666,16-.5-1.094-6.405,1.573-8.738,8-7c0-1.333,0-2.667,0-4c1.333,0,2.667,0,4,0c.615,3.948,2.948,6.282,7,7c10.621-3.82,21.454-4.82,32.5-3c.167.333.333.667.5,1-2.667.667-5.333,1.333-8,2c.671,1.446,1.838,2.112,3.5,2c3.919-1.373,7.419-3.373,10.5-6c8.403,2.498,17.069,3.498,26,3-.345,2.988.988,4.321,4,4c3.012.321,4.345-1.012,4-4c2.667,0,5.333,0,8,0c0,1.333,0,2.667,0,4c1.992.172,3.658-.495,5-2c.929,1.189,1.262,2.522,1,4c1.333,0,2.667,0,4,0c.667,9.333,1.333,9.333,2,0c7,1.667,9.667-1,8-8c2.667,0,5.333,0,8,0c0-1.333,0-2.667,0-4c1.333,0,2.667,0,4,0c.467,2.211,1.467,4.211,3,6c1.231-1.151,1.231-2.317,0-3.5.948-.483,1.948-.649,3-.5-.149-1.052.017-2.052.5-3c.718.951,1.551,1.117,2.5.5-.857-.689-1.523-1.522-2-2.5c1.282-2.633,2.616-2.633,4,0c1.342-1.505,3.008-2.172,5-2Z" clip-rule="evenodd" fill="#fafbef" fill-rule="evenodd"/></g><g transform="translate(-111.518555-117.402169)" clip-rule="evenodd"><path d="M527.5,262.5c9.771-.285,19.438.548,29,2.5-.556.383-.889.883-1,1.5-9.477-1.271-18.811-2.604-28-4Z" clip-rule="evenodd" fill="#ded7e2" fill-rule="evenodd"/></g><g transform="translate(-111.518555-117.402169)" clip-rule="evenodd"><path d="M523.5,262.5c-16.383-.311-32.717.356-49,2c.418-.722,1.084-1.222,2-1.5c7.532-.552,15.032-1.385,22.5-2.5c8.332.52,16.499,1.187,24.5,2Z" clip-rule="evenodd" fill="#f0eaf1" fill-rule="evenodd"/></g><g transform="translate(-111.518555-117.402169)" clip-rule="evenodd"><path d="M198.5,584.5c0,.333,0,.667,0,1-.172.992.162,1.658,1,2c0,.333,0,.667,0,1c.667,0,1,.333,1,1c0,1.333,0,2.667,0,4c.667,0,1,.333,1,1c0,.333,0,.667,0,1-.172.992.162,1.658,1,2c11.996,36.99,33.163,67.657,63.5,92c.667,1,.667,2,0,3-3.399,3.229-6.565,6.562-9.5,10-.667,0-1,.333-1,1-13.786-11.115-25.786-23.782-36-38c.907-2.921,1.24-5.921,1-9c4.138-.275,5.138-2.275,3-6-5.298-8.829-10.465-17.829-15.5-27-2.884-7.319-5.384-14.819-7.5-22.5.145-.772.478-1.439,1-2-1.864-4.768-3.531-9.601-5-14.5.47-.963,1.137-.963,2,0Z" clip-rule="evenodd" fill="#f2c0c4" fill-rule="evenodd"/></g><g transform="translate(-111.518555-117.402169)" clip-rule="evenodd"><path d="M242.5,515.5c-1.21,12.154-1.21,24.154,0,36c.632,11.16,2.965,21.826,7,32c.632,4.934,2.132,9.6,4.5,14c9.36,18.546,21.527,35.046,36.5,49.5c42.134,34.559,90.134,56.726,144,66.5c3.293,1.1,6.626,2.267,10,3.5-2.828-.095-5.828.072-9,.5c0,3,0,6,0,9-3.35-.165-6.683.002-10,.5-2.348.346-4.181,1.513-5.5,3.5-.667,20.333-.667,40.667,0,61c.84,2.651,1.84,4.984,3,7-1.667-1-3.333-2-5-3-.308.808-.808,1.475-1.5,2-.814-2.266-1.314-4.6-1.5-7-.414.457-.914.791-1.5,1-1.166-18.991-1.333-37.991-.5-57c1-1.333,2-1.333,3,0c3.25-1.937,3.083-3.604-.5-5-3.448,1.942-6.115,1.276-8-2-4.751-1.381-9.417-1.214-14,.5-.964,1.725-1.631,3.559-2,5.5c0,.333,0,.667,0,1-.617.111-1.117.444-1.5,1-.5,6.325-.666,12.658-.5,19-6,0-12,0-18,0c.166-7.008,0-14.008-.5-21-1.261-2.711-3.094-4.878-5.5-6.5-3.317-.498-6.65-.665-10-.5.333,3-1,4.333-4,4-.194-2.412-1.527-3.412-4-3c.315,1.726.481,3.393.5,5-3.366-.291-6.866-1.291-10.5-3-2.615.769-5.281,1.103-8,1-7.146-2.81-14.48-3.477-22-2-3.101.192-6.101.858-9,2-2.658,3.661-5.325,7.327-8,11-1.386,6.04-1.219,12.04.5,18c1.039,1.21,2.206,2.21,3.5,3c2.793,2.903,6.126,5.069,10,6.5c5.895.912,11.562,2.578,17,5c2.053,1.678,2.387,3.511,1,5.5-5.482,1.575-10.816,1.241-16-1-4.275-5.349-9.442-6.349-15.5-3-2.587,7.69-.421,13.856,6.5,18.5c2.599,1.795,5.266,3.295,8,4.5c12.475,4.345,23.641,2.012,33.5-7c7.467-11.001,7.301-21.334-.5-31c.744-2.943,1.244-5.943,1.5-9c5.175-1.855,6.675-5.355,4.5-10.5.113-1.28.78-2.113,2-2.5c1.546,5.539,2.38,11.206,2.5,17c.169,11.507.669,22.841,1.5,34c0,.667.333,1,1,1c1.051,3.461,3.051,6.127,6,8c1.875,1.137,4.542,1.304,8,.5c1.851-.837,3.684-1.671,5.5-2.5c1.3-7.271,1.8-14.604,1.5-22c5.667,0,11.333,0,17,0-.617,6.098.05,11.765,2,17c.433,2.695,1.766,4.862,4,6.5c3.721.678,7.388.511,11-.5.667,0,1.333,0,2,0c2.481-.177,4.314.823,5.5,3c.333,3,.667,6,1,9c.5.5,1,1,1.5,1.5-1.256.417-1.923,1.25-2,2.5-11.82,8.563-23.154,7.897-34-2-3.163,2.416-6.496,4.582-10,6.5-10.778,3.633-20.112,1.466-28-6.5-.917.627-1.917.961-3,1-4.916,1.663-9.916,3.163-15,4.5-7.356.831-14.689.665-22-.5.333-.667.667-1.333,1-2-7.17-.952-13.836-3.118-20-6.5-3.92-3.749-7.586-7.583-11-11.5-.838-.342-1.172-1.008-1-2-2.586-7.766-3.586-15.766-3-24c.879-1.728,1.546-3.561,2-5.5-5.331-20.485.669-36.651,18-48.5c6.341-3.336,13.007-5.836,20-7.5c9.538-1.119,18.871-.286,28,2.5c3.055,1.024,6.055,2.357,9,4c2.272-.941,4.272-2.274,6-4-4.868-2.934-9.868-5.6-15-8-21.975-10.653-42.308-23.819-61-39.5-19.932-18.73-35.265-40.563-46-65.5-2.421-7.59-4.421-15.257-6-23-2.121-14.58-3.121-29.246-3-44c.739.131,1.406-.036,2-.5-.627-1.738-.96-3.571-1-5.5c1.438-7.262,2.105-14.595,2-22c1.333,0,2.667,0,4,0c0-1.333,0-2.667,0-4c1,0,2,0,3,0-1.14-2.525-1.807-5.192-2-8c1,0,2,0,3,0-.17-1.322.163-2.489,1-3.5c2.269-.758,4.436-.591,6.5.5.056,3.28.889,6.28,2.5,9-4.112,2.82-3.945,5.487.5,8c.498,3.317.665,6.65.5,10Z" clip-rule="evenodd" fill="#230b45" fill-rule="evenodd"/></g><g transform="translate(-111.518555-117.402168)" clip-rule="evenodd"><path d="M823.5,586.5c.624.417.957,1.084,1,2-3.765,23.29-12.432,44.456-26,63.5c1.176,4.453,1.176,8.953,0,13.5-2.333,0-4.667,0-7,0-.061,2.092-1.061,3.592-3,4.5c3.253,1.036,6.586,1.703,10,2-9.866,11.032-20.199,21.532-31,31.5-3.964-3.463-7.798-7.13-11.5-11-.667-1-.667-2,0-3c33.556-27.062,56.056-61.395,67.5-103Z" clip-rule="evenodd" fill="#f0bfc0" fill-rule="evenodd"/></g><g transform="translate(-111.518555-117.402168)" clip-rule="evenodd"><path d="M433.5,690.5c10.227,1.654,20.56,2.321,31,2c0,1,0,2,0,3c34.358,1.618,68.691,1.284,103-1-11.808,1.585-23.808,2.752-36,3.5-33.18,2.054-65.847-.446-98-7.5Z" clip-rule="evenodd" fill="#faf5f2" fill-rule="evenodd"/></g><g transform="translate(-111.518555-117.402168)" clip-rule="evenodd"><path d="M699.5,697.5c.926,2.595,2.593,4.595,5,6-2.752,2.566-2.586,4.899.5,7c2.047-1.109,4.213-1.776,6.5-2-4.217,2.377-8.051,5.377-11.5,9-5.639-5.736-12.472-9.236-20.5-10.5c6.598-3.467,13.265-6.634,20-9.5Z" clip-rule="evenodd" fill="#f7f5ee" fill-rule="evenodd"/></g><g transform="translate(-111.518555-117.402168)" clip-rule="evenodd"><path d="M336.5,703.5c5.132,2.4,10.132,5.066,15,8-1.728,1.726-3.728,3.059-6,4-2.945-1.643-5.945-2.976-9-4-6.289-3.402-13.122-4.735-20.5-4-3.833.167-7.667.333-11.5.5-2.984,1.271-5.984,2.438-9,3.5-.714-3.746.453-4.746,3.5-3c14.003-4.543,27.67-3.877,41,2c1.059-.13,1.892-.63,2.5-1.5-2.337-1.634-4.337-3.467-6-5.5Z" clip-rule="evenodd" fill="#eee8eb" fill-rule="evenodd"/></g><g transform="translate(-111.518555-117.402169)" clip-rule="evenodd"><path d="M336.5,711.5c-9.129-2.786-18.462-3.619-28-2.5-6.993,1.664-13.659,4.164-20,7.5c2.157-1.912,4.491-3.579,7-5c3.016-1.062,6.016-2.229,9-3.5c3.833-.167,7.667-.333,11.5-.5c7.378-.735,14.211.598,20.5,4Z" opacity="0.565" clip-rule="evenodd" fill="#1f153c" fill-rule="evenodd"/></g><g transform="translate(-111.518555-117.402168)" clip-rule="evenodd"><path d="M625.5,704.5c0,1,0,2,0,3-2.333-1.333-4.667-1.333-7,0-.149,1.052.017,2.052.5,3c.654-1.196,1.154-1.196,1.5,0-.809,1.571-1.143,3.238-1,5-1.333,0-2.667,0-4,0c0-1,0-2,0-3-2.687-.164-5.354.003-8,.5c1.999,4.056.832,6.556-3.5,7.5-3.439-.556-4.272-2.389-2.5-5.5-2.149-.579-4.315-1.079-6.5-1.5-4.754,1.282-9.588,2.115-14.5,2.5-2.612.639-4.946,1.806-7,3.5-1.953.656-3.953.989-6,1c1.024,7.343,1.024,14.677,0,22-6.679,9.822-7.679,20.155-3,31-4.921-6.601-6.088-13.934-3.5-22c1.746-3.827,3.746-7.493,6-11c1.512-6.964-1.321-10.631-8.5-11-2.478.167-4.478,1.167-6,3-.667-1.333-1.333-2.667-2-4-2.088-5.627-6.088-7.461-12-5.5-.916.374-1.75.874-2.5,1.5-8.378,17.422-16.211,35.089-23.5,53-3.126,4.056-4.459,8.723-4,14-.611-2.211-1.944-3.878-4-5c2.071-4.896,2.404-9.896,1-15c.973,1.291,1.973,1.291,3,0c1.247,1.506,1.247,3.006,0,4.5.948.483,1.948.649,3,.5.144-5.261,1.811-9.928,5-14-.333-.667-.667-1.333-1-2c1.022-.854,1.855-1.854,2.5-3c.513-3.714,1.68-7.047,3.5-10c1.175.219,2.175-.114,3-1-1.02-1.932-1.187-3.932-.5-6c2.754-3.841,5.254-7.841,7.5-12c.98-2.586,1.313-5.253,1-8c1.699.16,3.366-.006,5-.5-1.973-.495-3.973-.662-6-.5c31.738-1.733,63.071-6.733,94-15Z" clip-rule="evenodd" fill="#240e41" fill-rule="evenodd"/></g><g transform="translate(-111.518555-117.402168)" clip-rule="evenodd"><path d="M472.5,717.5c19.614,1.772,39.281,2.438,59,2c2.027-.162,4.027.005,6,.5-1.634.494-3.301.66-5,.5.313,2.747-.02,5.414-1,8-2.246,4.159-4.746,8.159-7.5,12-.687,2.068-.52,4.068.5,6-.825.886-1.825,1.219-3,1-1.82,2.953-2.987,6.286-3.5,10-.645,1.146-1.478,2.146-2.5,3c.333.667.667,1.333,1,2-3.189,4.072-4.856,8.739-5,14-1.052.149-2.052-.017-3-.5c1.247-1.494,1.247-2.994,0-4.5-1.027,1.291-2.027,1.291-3,0-1.954-3.532-4.621-6.532-8-9c5.62-7.091,6.453-14.757,2.5-23-1.704-1.873-3.537-3.54-5.5-5-.667-.667-1.333-1.333-2-2-2.517-2.235-5.517-3.735-9-4.5-9.385-.052-16.052-.552-20-1.5c0-2.333,0-4.667,0-7c3.329.285,6.329-.382,9-2Z" clip-rule="evenodd" fill="#240a48" fill-rule="evenodd"/></g><g transform="translate(-111.518555-117.402168)" clip-rule="evenodd"><path d="M550.5,728.5c.239,1.967-.094,3.801-1,5.5c1.498.585,2.498.085,3-1.5c1.522-1.833,3.522-2.833,6-3c7.179.369,10.012,4.036,8.5,11-2.254,3.507-4.254,7.173-6,11-2.588,8.066-1.421,15.399,3.5,22c2.449,4.617,6.282,6.951,11.5,7c6.246.563,10.079-2.104,11.5-8-3.74.259-7.406-.074-11-1-.833-1-1.667-2-2.5-3-1.724-5.231-.224-9.065,4.5-11.5c7.667-.667,15.333-.667,23,0c1.431.465,2.597,1.299,3.5,2.5c2.259,5.061,3.092,10.395,2.5,16-2.474,6.927-6.474,12.927-12,18-22.663,10.779-39.996,5.113-52-17-1.011-3.707-2.177-7.373-3.5-11-5.046,9.795-9.713,19.795-14,30-.816,1.323-1.983,1.989-3.5,2-7.634.867-11.634-2.467-12-10c1.093-3.269,1.759-6.603,2-10c7.289-17.911,15.122-35.578,23.5-53c.75-.626,1.584-1.126,2.5-1.5c5.912-1.961,9.912-.127,12,5.5Z" clip-rule="evenodd" fill="#fcfbec" fill-rule="evenodd"/></g><g transform="translate(-111.518555-117.402168)" clip-rule="evenodd"><path d="M333.5,759.5c12.949,10.978,13.282,22.478,1,34.5-9.08,5.275-18.747,6.775-29,4.5-2.734-1.205-5.401-2.705-8-4.5-6.921-4.644-9.087-10.81-6.5-18.5c6.058-3.349,11.225-2.349,15.5,3c.558,1.29,1.558,2.123,3,2.5c1.833.167,3.667.333,5.5.5c2.866.2,5.366-.467,7.5-2c1.387-1.989,1.053-3.822-1-5.5-5.438-2.422-11.105-4.088-17-5-3.874-1.431-7.207-3.597-10-6.5-3.949-6.257-4.782-12.923-2.5-20c.935-3.095,2.769-5.429,5.5-7c13.413-8.405,26.413-7.738,39,2c.729,2.476,1.396,4.976,2,7.5-2.531,2.408-5.531,3.908-9,4.5c0-1,0-2,0-3-5.806-1.724-11.806-2.224-18-1.5-2.527,2.589-3.527,5.756-3,9.5c8.432,1.261,16.765,2.928,25,5Z" clip-rule="evenodd" fill="#fcfbea" fill-rule="evenodd"/></g><g transform="translate(-111.518555-117.402168)" clip-rule="evenodd"><path d="M550.5,728.5c.667,1.333,1.333,2.667,2,4-.502,1.585-1.502,2.085-3,1.5.906-1.699,1.239-3.533,1-5.5Z" clip-rule="evenodd" fill="#8c8593" fill-rule="evenodd"/></g><g transform="translate(-111.518555-117.402168)" clip-rule="evenodd"><path d="M631.5,747.5c0,2.667,0,5.333,0,8c7.333,0,14.667,0,22,0c4.619,3.134,6.119,7.468,4.5,13-1.214,1.549-2.714,2.715-4.5,3.5-7,.333-14,.667-21,1-.935,2.381-1.268,4.881-1,7.5c8.007-.166,16.007,0,24,.5c1.245.791,2.578,1.291,4,1.5c3.82,4.522,3.82,9.189,0,14-1.422.209-2.755.709-4,1.5-12,.667-24,.667-36,0-2.579-1.076-4.246-2.909-5-5.5-.167-19.336,0-38.67.5-58c1.579-1.541,3.413-2.708,5.5-3.5c11.667-.667,23.333-.667,35,0c4.52,3.274,5.187,7.274,2,12c.333.333.667.667,1,1-9.293.77-18.293,1.937-27,3.5Z" clip-rule="evenodd" fill="#fcfceb" fill-rule="evenodd"/></g><g transform="translate(-111.518555-117.402168)" clip-rule="evenodd"><path d="M692.5,770.5c-.057-1.109-.39-2.109-1-3-.672-.767-1.505-1.434-2.5-2-.5,8.994-.666,17.994-.5,27-1.557,4.37-4.724,6.37-9.5,6-4.719-.046-7.719-2.379-9-7-.667-18.667-.667-37.333,0-56c.997-1.823,2.164-3.49,3.5-5c3.243-1.08,6.576-1.247,10-.5c9.863,10.536,19.029,21.702,27.5,33.5.333-9.667.667-19.333,1-29c.956-1.079,1.789-2.245,2.5-3.5c6.17-2.878,11.336-1.711,15.5,3.5.667,18.667.667,37.333,0,56-2.229,6.532-6.729,9.032-13.5,7.5-7.865-9.36-15.865-18.526-24-27.5Z" clip-rule="evenodd" fill="#fcfced" fill-rule="evenodd"/></g><g transform="translate(-111.518555-117.402168)" clip-rule="evenodd"><path d="M365.5,730.5c2.124.531,3.624,1.865,4.5,4c.5,6.992.666,13.992.5,21c7.148.992,14.481,1.325,22,1-.277-4.733.057-9.4,1-14c2-1.333,4-1.333,6,0-6.573,1.138-6.573,1.972,0,2.5.547.925,1.213,1.758,2,2.5.825-3.622,1.325-7.289,1.5-11c1.512-2.457,2.846-2.457,4,0c1.599,18.289,1.932,36.622,1,55-2.943,1.435-5.777,3.102-8.5,5-1.904-2.031-2.071-4.031-.5-6c.5-6.325.666-12.658.5-19-6.67-.389-13.336-.889-20-1.5c1.333-.333,2.667-.667,4-1-5.092-2.126-10.092-1.793-15,1c1.323.816,1.989,1.983,2,3.5-1.643,6.283-2.643,12.95-3,20-6.3,4.848-11.133,3.848-14.5-3-.667-18-.667-36,0-54c2.441-5.427,6.608-7.427,12.5-6Z" clip-rule="evenodd" fill="#fefeec" fill-rule="evenodd"/></g><g transform="translate(-111.518555-117.402168)" clip-rule="evenodd"><path d="M494.5,734.5c1.963,1.46,3.796,3.127,5.5,5c3.953,8.243,3.12,15.909-2.5,23c3.379,2.468,6.046,5.468,8,9c1.404,5.104,1.071,10.104-1,15-.667.667-1.333,1.333-2,2-2,.667-4,1.333-6,2c0,1,0,2,0,3-1.624.14-2.79-.527-3.5-2-1.222,2.196-3.056,3.696-5.5,4.5-10.333.667-20.667.667-31,0-1.549-1.214-2.715-2.714-3.5-4.5-.667-18.333-.667-36.667,0-55c1.044-1.123,1.71-2.456,2-4c13.276-1.636,26.443-.969,39.5,2Z" clip-rule="evenodd" fill="#fcfdeb" fill-rule="evenodd"/></g><g transform="translate(-111.518555-117.402168)" clip-rule="evenodd"><path d="M307.5,728.5c-3.998,1.337-7.332,3.67-10,7-2.731,1.571-4.565,3.905-5.5,7-2.282,7.077-1.449,13.743,2.5,20-1.294-.79-2.461-1.79-3.5-3-1.719-5.96-1.886-11.96-.5-18c2.675-3.673,5.342-7.339,8-11c2.899-1.142,5.899-1.808,9-2Z" clip-rule="evenodd" fill="#1c1036" fill-rule="evenodd"/></g><g transform="translate(-111.518555-117.402168)" clip-rule="evenodd"><path d="M351.5,730.5c-2.342.275-2.342,1.108,0,2.5-.993,18.757-1.326,37.59-1,56.5-.831-11.159-1.331-22.493-1.5-34-.12-5.794-.954-11.461-2.5-17-1.22.387-1.887,1.22-2,2.5c2.175,5.145.675,8.645-4.5,10.5-.256,3.057-.756,6.057-1.5,9c7.801,9.666,7.967,19.999.5,31-9.859,9.012-21.025,11.345-33.5,7c10.253,2.275,19.92.775,29-4.5c12.282-12.022,11.949-23.522-1-34.5-6.211-3.018-12.877-4.851-20-5.5-3.905-2.475-3.905-5.142,0-8c1-.167,2-.333,3-.5c5.227,1.533,10.394,3.2,15.5,5c7.498-.997,9.831-4.997,7-12-2.731-3.268-5.898-5.935-9.5-8c2.719.103,5.385-.231,8-1c3.634,1.709,7.134,2.709,10.5,3-.019-1.607-.185-3.274-.5-5c2.473-.412,3.806.588,4,3Z" clip-rule="evenodd" fill="#1e0e40" fill-rule="evenodd"/></g><g transform="translate(-111.518555-117.402169)" clip-rule="evenodd"><path d="M658.5,730.5c5.209,5.243,5.209,10.41,0,15.5-8.558,1.441-17.224,1.941-26,1.5-.333,0-.667,0-1,0c8.707-1.563,17.707-2.73,27-3.5-.333-.333-.667-.667-1-1c3.187-4.726,2.52-8.726-2-12-11.667-.667-23.333-.667-35,0-2.087.792-3.921,1.959-5.5,3.5-.5,19.33-.667,38.664-.5,58-.722-.418-1.222-1.084-1.5-2-.5-18.33-.667-36.664-.5-55c1.431-1.937,3.098-3.77,5-5.5c13.712-.798,27.378-.631,41,.5Z" clip-rule="evenodd" fill="#e9e3e7" fill-rule="evenodd"/></g><g transform="translate(-111.518555-117.402169)" clip-rule="evenodd"><path d="M329.5,730.5c3.602,2.065,6.769,4.732,9.5,8c2.831,7.003.498,11.003-7,12-5.106-1.8-10.273-3.467-15.5-5-1,.167-2,.333-3,.5-3.905,2.858-3.905,5.525,0,8c7.123.649,13.789,2.482,20,5.5-8.235-2.072-16.568-3.739-25-5-.527-3.744.473-6.911,3-9.5c6.194-.724,12.194-.224,18,1.5c0,1,0,2,0,3c3.469-.592,6.469-2.092,9-4.5-.604-2.524-1.271-5.024-2-7.5-12.587-9.738-25.587-10.405-39-2c2.668-3.33,6.002-5.663,10-7c7.52-1.477,14.854-.81,22,2Z" clip-rule="evenodd" fill="#ede9ea" fill-rule="evenodd"/></g><g transform="translate(-111.518555-117.402168)" clip-rule="evenodd"><path d="M469.5,747.5c4.014-.166,8.014.001,12,.5c2.962,3.488,2.295,6.155-2,8-3.317.498-6.65.665-10,.5c0-3,0-6,0-9Z" opacity="0.565" clip-rule="evenodd" fill="#24163e" fill-rule="evenodd"/></g><g transform="translate(-111.518555-117.402168)" clip-rule="evenodd"><path d="M470.5,748.5c3.35-.165,6.683.002,10,.5c1.333,1.667,1.333,3.333,0,5-3.317.498-6.65.665-10,.5c0-2,0-4,0-6Z" clip-rule="evenodd" fill="#1e024d" fill-rule="evenodd"/></g><g transform="translate(-111.518555-117.402169)" clip-rule="evenodd"><path d="M391.5,734.5c0,7,0,14,0,21-7,0-14,0-21,0c.166-7.008,0-14.008-.5-21-.876-2.135-2.376-3.469-4.5-4-5.96-3.129-10.46-1.462-13.5,5-.5,18.33-.667,36.664-.5,55-.667,0-1-.333-1-1-.326-18.91.007-37.743,1-56.5-2.342-1.392-2.342-2.225,0-2.5c3,.333,4.333-1,4-4c3.35-.165,6.683.002,10,.5c2.406,1.622,4.239,3.789,5.5,6.5.5,6.992.666,13.992.5,21c6,0,12,0,18,0-.166-6.342,0-12.675.5-19c.383-.556.883-.889,1.5-1Z" opacity="0.925" clip-rule="evenodd" fill="#221739" fill-rule="evenodd"/></g><g transform="translate(-111.518555-117.402168)" clip-rule="evenodd"><path d="M408.5,731.5c1.431.381,2.264,1.381,2.5,3c.667,19.333.667,38.667,0,58-.847,1.693-1.68,3.36-2.5,5-.667,0-1.333,0-2,0c1.407-1.808,2.574-3.808,3.5-6c.667-18.667.667-37.333,0-56-.791-1.245-1.291-2.578-1.5-4Z" opacity="0.565" clip-rule="evenodd" fill="#120624" fill-rule="evenodd"/></g><g transform="translate(-111.518555-117.402168)" clip-rule="evenodd"><path d="M408.5,731.5c.209,1.422.709,2.755,1.5,4c.667,18.667.667,37.333,0,56-.926,2.192-2.093,4.192-3.5,6-3.612,1.011-7.279,1.178-11,.5-2.234-1.638-3.567-3.805-4-6.5c0-6,0-12,0-18-7,0-14,0-21,0-.011-1.517-.677-2.684-2-3.5c4.908-2.793,9.908-3.126,15-1-1.333.333-2.667.667-4,1c6.664.611,13.33,1.111,20,1.5.166,6.342,0,12.675-.5,19-1.571,1.969-1.404,3.969.5,6c2.723-1.898,5.557-3.565,8.5-5c.932-18.378.599-36.711-1-55-1.154-2.457-2.488-2.457-4,0-.175,3.711-.675,7.378-1.5,11-.787-.742-1.453-1.575-2-2.5-6.573-.528-6.573-1.362,0-2.5-2-1.333-4-1.333-6,0-.943,4.6-1.277,9.267-1,14-7.519.325-14.852-.008-22-1c7,0,14,0,21,0c0-7,0-14,0-21c0-.333,0-.667,0-1c5.069-5.789,10.736-6.456,17-2Z" clip-rule="evenodd" fill="#f6f4eb" fill-rule="evenodd"/></g><g transform="translate(-111.518555-117.402168)" clip-rule="evenodd"><path d="M469.5,772.5c5.011-.166,10.011.001,15,.5c2.962,3.488,2.295,6.155-2,8-4.321.499-8.654.666-13,.5c0-3,0-6,0-9Z" opacity="0.816" clip-rule="evenodd" fill="#2a1b46" fill-rule="evenodd"/></g><g transform="translate(-111.518555-117.402169)" clip-rule="evenodd"><path d="M470.5,773.5c4.346-.166,8.679.001,13,.5c1.64,2.776.973,4.776-2,6-3.333.667-6.667.667-10,0-.923-2.041-1.256-4.208-1-6.5Z" clip-rule="evenodd" fill="#1d0248" fill-rule="evenodd"/></g><g transform="translate(-111.518555-117.402168)" clip-rule="evenodd"><path d="M691.5,767.5c-1.655,8.117-2.655,16.45-3,25-.166-9.006,0-18.006.5-27c.995.566,1.828,1.233,2.5,2Z" clip-rule="evenodd" fill="#c2b9c5" fill-rule="evenodd"/></g><g transform="translate(-111.518555-117.402168)" clip-rule="evenodd"><path d="M750.5,729.5c.79,1.109,1.29,2.442,1.5,4c.667,18.667.667,37.333,0,56-.399,5.055-2.232,9.389-5.5,13c2.4-4.703,3.9-9.703,4.5-15c.756-19.351.589-38.684-.5-58Z" opacity="0.906" clip-rule="evenodd" fill="#180b35" fill-rule="evenodd"/></g><g transform="translate(-111.518555-117.402168)" clip-rule="evenodd"><path d="M306.5,778.5c5.184,2.241,10.518,2.575,16,1-2.134,1.533-4.634,2.2-7.5,2-1.833-.167-3.667-.333-5.5-.5-1.442-.377-2.442-1.21-3-2.5Z" opacity="0.565" clip-rule="evenodd" fill="#141028" fill-rule="evenodd"/></g><g transform="translate(-111.518555-117.402168)" clip-rule="evenodd"><path d="M370.5,773.5c7,0,14,0,21,0c0,6,0,12,0,18-1.95-5.235-2.617-10.902-2-17-5.667,0-11.333,0-17,0c.3,7.396-.2,14.729-1.5,22-1.816.829-3.649,1.663-5.5,2.5-3.458.804-6.125.637-8-.5c4.626.8,8.46-.534,11.5-4c1.425-6.885,1.925-13.885,1.5-21Z" opacity="0.781" clip-rule="evenodd" fill="#221838" fill-rule="evenodd"/></g><g transform="translate(-111.518555-117.402168)" clip-rule="evenodd"><path d="M268.5,770.5c-.586,8.234.414,16.234,3,24-5.088-7.565-6.088-15.565-3-24Z" opacity="0.584" clip-rule="evenodd" fill="#1f173b" fill-rule="evenodd"/></g><g transform="translate(-111.518555-117.402168)" clip-rule="evenodd"><path d="M607.5,775.5c-1.01,8.026-5.01,14.026-12,18c5.526-5.073,9.526-11.073,12-18Z" opacity="0.565" clip-rule="evenodd" fill="#201835" fill-rule="evenodd"/></g><g transform="translate(-111.518555-117.402168)" clip-rule="evenodd"><path d="M512.5,777.5c-.241,3.397-.907,6.731-2,10c.366,7.533,4.366,10.867,12,10-1.955,1.826-4.288,2.326-7,1.5-3.246-1.742-5.579-4.242-7-7.5-.459-5.277.874-9.944,4-14Z" clip-rule="evenodd" fill="#e8e0e8" fill-rule="evenodd"/></g><g transform="translate(-111.518555-117.402168)" clip-rule="evenodd"><path d="M658.5,730.5c4.144-.071,6.478,1.929,7,6c3.126-.118,4.459-2.118,4-6c1.333,0,2.667,0,4,0-1.336,1.51-2.503,3.177-3.5,5-.667,18.667-.667,37.333,0,56c1.281,4.621,4.281,6.954,9,7c4.776.37,7.943-1.63,9.5-6c.345-8.55,1.345-16.883,3-25c.61.891.943,1.891,1,3-.617-.111-1.117-.444-1.5-1-.832,9.018-.665,18.018.5,27c.808.308,1.475.808,2,1.5-1.707.195-3.374.195-5,0-.764,2.069-1.264,4.236-1.5,6.5-4.522,3.184-6.356,1.85-5.5-4-3.507.506-6.674-.16-9.5-2-3.922.684-5.422,3.018-4.5,7c3.416,2.048,7.083,3.714,11,5-3.959.827-7.959,1.327-12,1.5.88,1.356,1.214,2.856,1,4.5-1.805-.737-3.471-1.737-5-3-2.398,2.699-5.398,4.033-9,4-14.105.531-28.105-.135-42-2-2.872-1.026-5.372-2.692-7.5-5-2.564,2.227-5.397,4.061-8.5,5.5-20.315,7.611-38.315,4.111-54-10.5-2.996,3.829-6.329,7.329-10,10.5-11.113,5.52-21.447,4.354-31-3.5-4.605,2.924-9.605,4.757-15,5.5-10.667.667-21.333.667-32,0-2.084-.697-3.751-1.864-5-3.5c12.808,3.228,25.808,3.895,39,2-.164-2.687.003-5.354.5-8c2.796-.711,5.63-1.378,8.5-2c.833,1,1.667,2,2.5,3c.423-1.456,1.256-1.956,2.5-1.5c3.834,2.684,6.834,5.517,9,8.5c5.652,1.04,11.318,1.04,17,0c.17-1.322-.163-2.489-1-3.5c1.559-.98,3.226-1.813,5-2.5-.525-.692-1.192-1.192-2-1.5c1.304-.804,1.971-1.971,2-3.5-.656-1.953-.989-3.953-1-6c3.58-.577,6.58.423,9,3c4.04.426,7.707,1.759,11,4c2.921-.907,5.921-1.24,9-1c.262,1.478-.071,2.811-1,4-2.555-2.751-3.555-2.084-3,2c2.667,0,5.333,0,8,0c0,1.333,0,2.667,0,4c9.585,1.153,19.085,1.153,28.5,0c.833-.167,1.667-.333,2.5-.5.757-1.512,1.757-2.846,3-4c2.619-.151,4.953-.985,7-2.5c1.414,2.71,3.414,3.71,6,3c.833,1,1.667,2,2.5,3c.392-2.955,1.892-5.122,4.5-6.5-.333-.333-.667-.667-1-1c2.297-.018,4.631.149,7,.5c0-1,0-2,0-3-2.42.208-4.753-.126-7-1-.886-.825-1.219-1.825-1-3-1.322.17-2.489-.163-3.5-1-.346-1.718-.846-3.385-1.5-5c.655-19.794,1.322-39.461,2-59-.167,18.336,0,36.67.5,55c.278.916.778,1.582,1.5,2c.754,2.591,2.421,4.424,5,5.5c12,.667,24,.667,36,0c1.245-.791,2.578-1.291,4-1.5-.011,1.517-.677,2.684-2,3.5.782,2.74,1.282,5.574,1.5,8.5c2.382,1.054,4.882,1.721,7.5,2-.136-2.85-.469-5.683-1-8.5.333-1.167.667-2.333,1-3.5c3.817-.477,4.65-2.144,2.5-5-.533-18.005-1.2-36.005-2-54-.667,2.667-1.333,2.667-2,0-1.341,3.108-3.175,5.941-5.5,8.5.522.95,1.189,1.784,2,2.5-2.491,4.541-2.324,8.874.5,13c.818,2.727.652,5.394-.5,8-.586-.209-1.086-.543-1.5-1-2.068,2.062-4.568,3.228-7.5,3.5-5.991.499-11.991.666-18,.5c0,1.333,0,2.667,0,4c8.375.24,16.708-.093,25-1c0,1.667,0,3.333,0,5-1.422-.209-2.755-.709-4-1.5-7.993-.5-15.993-.666-24-.5-.268-2.619.065-5.119,1-7.5c7-.333,14-.667,21-1c1.786-.785,3.286-1.951,4.5-3.5c1.619-5.532.119-9.866-4.5-13-6.813-.991-13.813-1.325-21-1c0-2.333,0-4.667,0-7c8.776.441,17.442-.059,26-1.5c5.209-5.09,5.209-10.257,0-15.5Z" clip-rule="evenodd" fill="#200b3f" fill-rule="evenodd"/></g><g transform="translate(-111.518555-117.402168)" clip-rule="evenodd"><path d="M631.5,747.5c.333,0,.667,0,1,0c0,2.333,0,4.667,0,7c7.187-.325,14.187.009,21,1-7.333,0-14.667,0-22,0c0-2.667,0-5.333,0-8Z" clip-rule="evenodd" fill="#6a6278" fill-rule="evenodd"/></g><g transform="translate(-111.518555-117.402168)" clip-rule="evenodd"><path d="M659.5,796.5c3.82-4.811,3.82-9.478,0-14c0-1.667,0-3.333,0-5-8.292.907-16.625,1.24-25,1c0-1.333,0-2.667,0-4c6.009.166,12.009-.001,18-.5c2.932-.272,5.432-1.438,7.5-3.5.414.457.914.791,1.5,1c1.152-2.606,1.318-5.273.5-8-2.824-4.126-2.991-8.459-.5-13-.811-.716-1.478-1.55-2-2.5c2.325-2.559,4.159-5.392,5.5-8.5.667,2.667,1.333,2.667,2,0c.8,17.995,1.467,35.995,2,54c2.15,2.856,1.317,4.523-2.5,5-.333,1.167-.667,2.333-1,3.5.531,2.817.864,5.65,1,8.5-2.618-.279-5.118-.946-7.5-2-.218-2.926-.718-5.76-1.5-8.5c1.323-.816,1.989-1.983,2-3.5Z" clip-rule="evenodd" fill="#210846" fill-rule="evenodd"/></g><g transform="translate(-111.518555-117.402168)" clip-rule="evenodd"><path d="M434.5,713.5c12.593,1.989,25.26,3.323,38,4-2.671,1.618-5.671,2.285-9,2c0,2.333,0,4.667,0,7c3.948.948,10.615,1.448,20,1.5c3.483.765,6.483,2.265,9,4.5-7.439-2.448-15.106-3.448-23-3-4.667.167-9.333.333-14,.5-1.167,1.167-2.333,2.333-3.5,3.5-1.143,9.905-1.643,19.905-1.5,30c.167,9.333.333,18.667.5,28c.791,1.245,1.291,2.578,1.5,4-1.322.17-2.489-.163-3.5-1-.333-11.667-.667-23.333-1-35-.471,1.746-1.138,3.413-2,5-.333-.333-.667-.667-1-1-.634-6.676-.134-13.176,1.5-19.5-.151-9.793-1.318-9.96-3.5-.5-.167,8-.333,16-.5,24c.058,8.768.725,17.435,2,26-1.454,1.957-3.12,3.79-5,5.5-5.585,1.186-11.251,1.852-17,2-1.896,1.808-2.396,3.975-1.5,6.5c1.156-1.493,1.99-1.326,2.5.5-.732,3.04-.399,6.04,1,9c6.847.477,13.514-.356,20-2.5-5.449,4.62-11.783,6.12-19,4.5-3.803-1.655-7.47-3.489-11-5.5.077-1.25.744-2.083,2-2.5-.5-.5-1-1-1.5-1.5-.333-3-.667-6-1-9-1.186-2.177-3.019-3.177-5.5-3c.82-1.64,1.653-3.307,2.5-5c.667-19.333.667-38.667,0-58-.236-1.619-1.069-2.619-2.5-3-6.264-4.456-11.931-3.789-17,2c.369-1.941,1.036-3.775,2-5.5c4.583-1.714,9.249-1.881,14-.5c1.885,3.276,4.552,3.942,8,2c3.583,1.396,3.75,3.063.5,5-1-1.333-2-1.333-3,0-.833,19.009-.666,38.009.5,57c.586-.209,1.086-.543,1.5-1c.186,2.4.686,4.734,1.5,7c.692-.525,1.192-1.192,1.5-2c1.667,1,3.333,2,5,3-1.16-2.016-2.16-4.349-3-7-.667-20.333-.667-40.667,0-61c1.319-1.987,3.152-3.154,5.5-3.5c3.317-.498,6.65-.665,10-.5c0-3,0-6,0-9c3.172-.428,6.172-.595,9-.5-3.374-1.233-6.707-2.4-10-3.5Z" clip-rule="evenodd" fill="#231040" fill-rule="evenodd"/></g><g transform="translate(-111.518555-117.402168)" clip-rule="evenodd"><path d="M426.5,730.5c-.991,1.982-1.991,3.982-3,6-1,18.321-1.333,36.655-1,55c2.442-.381,3.109.286,2,2c2.839,4.29,6.506,4.957,11,2c.645-1.146,1.478-2.146,2.5-3c.833-19.675.666-39.342-.5-59-1.419-.505-2.085-1.505-2-3c2.252.416,3.752,1.749,4.5,4c.667,19,.667,38,0,57-2.389,6.277-6.889,8.443-13.5,6.5-1.878-1.543-3.378-3.376-4.5-5.5-.667-19.333-.667-38.667,0-58c.876-2.135,2.376-3.469,4.5-4Z" clip-rule="evenodd" fill="#f7f3f2" fill-rule="evenodd"/></g><g transform="translate(-111.518555-117.402168)" clip-rule="evenodd"><path d="M435.5,730.5c-.085,1.495.581,2.495,2,3c1.166,19.658,1.333,39.325.5,59-1.022.854-1.855,1.854-2.5,3-4.494,2.957-8.161,2.29-11-2c1.109-1.714.442-2.381-2-2-.333-18.345,0-36.679,1-55c1.009-2.018,2.009-4.018,3-6c3-1.333,6-1.333,9,0Z" clip-rule="evenodd" fill="#fefdeb" fill-rule="evenodd"/></g><g transform="translate(-111.518555-117.402169)" clip-rule="evenodd"><path d="M543.5,776.5c-2.198-.567-4.531-.567-7,0c0,2.333,0,4.667,0,7-1.333,0-2.667,0-4,0-.079,2.166-.746,4.166-2,6c1.779,2.435,1.113,3.435-2,3c.162,2.027-.005,4.027-.5,6-.333-.333-.667-.667-1-1-5.677,3.465-11.511,3.799-17.5,1-.493-2.306-.826-4.639-1-7c1.421,3.258,3.754,5.758,7,7.5c2.712.826,5.045.326,7-1.5c1.517-.011,2.684-.677,3.5-2c4.287-10.205,8.954-20.205,14-30c1.323,3.627,2.489,7.293,3.5,11Z" clip-rule="evenodd" fill="#22103c" fill-rule="evenodd"/></g><g transform="translate(-111.518555-117.402169)" clip-rule="evenodd"><path d="M365.5,730.5c-5.892-1.427-10.059.573-12.5,6-.667,18-.667,36,0,54c3.367,6.848,8.2,7.848,14.5,3c.357-7.05,1.357-13.717,3-20c.425,7.115-.075,14.115-1.5,21-3.04,3.466-6.874,4.8-11.5,4-2.949-1.873-4.949-4.539-6-8-.167-18.336,0-36.67.5-55c3.04-6.462,7.54-8.129,13.5-5Z" clip-rule="evenodd" fill="#ede9ec" fill-rule="evenodd"/></g><g transform="translate(-111.518555-117.402169)" clip-rule="evenodd"><path d="M492.5,732.5c.667.667,1.333,1.333,2,2-13.057-2.969-26.224-3.636-39.5-2-.29,1.544-.956,2.877-2,4-.667,18.333-.667,36.667,0,55c.785,1.786,1.951,3.286,3.5,4.5c10.333.667,20.667.667,31,0c2.444-.804,4.278-2.304,5.5-4.5.71,1.473,1.876,2.14,3.5,2c0-1,0-2,0-3c2-.667,4-1.333,6-2-4.442,5.887-10.442,9.053-18,9.5-9,.667-18,.667-27,0-1.693-.847-3.36-1.68-5-2.5-.209-1.422-.709-2.755-1.5-4-.167-9.333-.333-18.667-.5-28-.143-10.095.357-20.095,1.5-30c1.167-1.167,2.333-2.333,3.5-3.5c4.667-.167,9.333-.333,14-.5c7.894-.448,15.561.552,23,3Z" clip-rule="evenodd" fill="#f0ebed" fill-rule="evenodd"/></g><g transform="translate(-111.518555-117.402169)" clip-rule="evenodd"><path d="M272.5,796.5c3.414,3.917,7.08,7.751,11,11.5c6.164,3.382,12.83,5.548,20,6.5-.333.667-.667,1.333-1,2c7.311,1.165,14.644,1.331,22,.5c5.084-1.337,10.084-2.837,15-4.5-1.249,1.636-2.916,2.803-5,3.5-10.074,3.338-20.408,4.338-31,3-13.609-3.126-23.943-10.626-31-22.5Z" clip-rule="evenodd" fill="#21133f" fill-rule="evenodd"/></g><g transform="translate(-111.518555-117.402168)" clip-rule="evenodd"><path d="M777.5,796.5c1.018,2.877.851,5.877-.5,9-3.282,11.901-6.782,23.401-10.5,34.5-13.678,19.167-32.345,27.5-56,25-3.629-.314-6.962-1.481-10-3.5-12.5,6.226-25.167,6.559-38,1-4.041,2.221-8.374,3.388-13,3.5-12.904,1.352-25.571.352-38-3-2.333-1.167-4.667-2.333-7-3.5-3.71,3.185-8.043,5.018-13,5.5-12.83,2.406-25.496,1.74-38-2-3.863-1.181-7.363-3.014-10.5-5.5-2.234,2.2-4.734,4.033-7.5,5.5-13.106,5.048-25.773,4.215-38-2.5-15.715,6.864-31.715,7.531-48,2-11.223,4.213-22.556,4.547-34,1-12.121,4.273-24.121,3.94-36-1-12.69,5.172-25.356,5.172-38,0-29.916,8.453-56.416,2.453-79.5-18-4.746-5.829-7.579-12.495-8.5-20c1-.833,2-1.667,3-2.5-1.667-2.333-3.667-4.333-6-6c.667-.333,1.333-.667,2-1-1.31-2.616-2.976-4.949-5-7c.556-.383.889-.883,1-1.5.333,0,.667,0,1,0c.667,0,1,.333,1,1c0,.333,0,.667,0,1c.667,0,1,.333,1,1c3.7,6.724,8.367,12.724,14,18c.342.838,1.008,1.172,2,1c22.13,18.196,46.797,22.196,74,12c12.625,6.588,25.292,6.588,38,0c12.159,6.64,24.326,6.64,36.5,0c2.057,2.044,4.557,3.21,7.5,3.5c8.559,1.112,16.892.279,25-2.5c16.399,5.432,32.732,5.098,49-1c15.898,7.312,31.231,6.312,46-3c6.306,3.381,12.973,5.881,20,7.5c14.592,2.074,28.592.241,42-5.5c9.374,4.76,19.374,6.76,30,6c9.314.57,18.148-1.097,26.5-5c12.734,6.622,25.4,6.622,38,0c2.971,1.563,6.138,2.73,9.5,3.5c33.751,1.763,56.084-13.404,67-45.5.667,0,1-.333,1-1c0-.333,0-.667,0-1Z" opacity="0.922" clip-rule="evenodd" fill="#f3c1c3" fill-rule="evenodd"/></g><g transform="translate(-111.518555-117.402168)" clip-rule="evenodd"><path d="M611.5,815.5c13.895,1.865,27.895,2.531,42,2-12.493,1.16-25.16,1.327-38,.5-1.566-.608-2.9-1.442-4-2.5Z" opacity="0.568" clip-rule="evenodd" fill="#0e072a" fill-rule="evenodd"/></g></svg>
